<svg width="33" height="22" viewBox="0 0 33 22" fill="none" xmlns="http://www.w3.org/2000/svg">
<g clip-path="url(#clip0_405_3052)">
<g clip-path="url(#clip1_405_3052)">
<path d="M20.3966 19.5935H11.6086V3.61084H20.3966V19.5935Z" fill="#FF5F00"/>
</g>
</g>
<g clip-path="url(#clip2_405_3052)">
<g clip-path="url(#clip3_405_3052)">
<path d="M12.3917 10.1142C12.3917 7.03779 13.8035 4.29742 16.002 2.53142C14.3943 1.24002 12.3653 0.469238 10.1602 0.469238C4.93988 0.469238 0.708191 4.78737 0.708191 10.1142C0.708191 15.441 4.93988 19.7592 10.1602 19.7592C12.3653 19.7592 14.3943 18.9884 16.002 17.697C13.8035 15.931 12.3917 13.1906 12.3917 10.1142Z" fill="#EB001B"/>
</g>
</g>
<g clip-path="url(#clip4_405_3052)">
<g clip-path="url(#clip5_405_3052)">
<path d="M32.2525 10.1142C32.2525 15.441 27.7563 19.7592 22.2097 19.7592C19.8668 19.7592 17.711 18.9884 16.0022 17.697C18.3387 15.931 19.8387 13.1906 19.8387 10.1142C19.8387 7.03779 18.3387 4.29742 16.0022 2.53142C17.711 1.24002 19.8668 0.469238 22.2097 0.469238C27.7563 0.469238 32.2525 4.78737 32.2525 10.1142Z" fill="#F79E1B"/>
</g>
</g>
<defs>
<clipPath id="clip0_405_3052">
<rect width="10" height="16.3" fill="white" transform="translate(11 3.34375)"/>
</clipPath>
<clipPath id="clip1_405_3052">
<rect width="10" height="16.3" fill="white" transform="translate(11 3.34375)"/>
</clipPath>
<clipPath id="clip2_405_3052">
<rect width="16" height="20.3" fill="white" transform="translate(0 0.34375)"/>
</clipPath>
<clipPath id="clip3_405_3052">
<rect width="16" height="20.3" fill="white" transform="translate(0 0.34375)"/>
</clipPath>
<clipPath id="clip4_405_3052">
<rect width="17" height="20.3" fill="white" transform="translate(16 0.34375)"/>
</clipPath>
<clipPath id="clip5_405_3052">
<rect width="17" height="20.3" fill="white" transform="translate(16 0.34375)"/>
</clipPath>
</defs>
</svg>
