<svg width="56" height="20" viewBox="0 0 56 20" fill="none" xmlns="http://www.w3.org/2000/svg">
<g clip-path="url(#clip0_405_3062)">
<g clip-path="url(#clip1_405_3062)">
<path fill-rule="evenodd" clip-rule="evenodd" d="M14.503 18.5405H9.74311L6.17376 4.52271C6.00435 3.87789 5.64463 3.30783 5.11549 3.03916C3.79497 2.36397 2.33985 1.82662 0.752441 1.55561V1.01593H8.42027C9.47854 1.01593 10.2722 1.82662 10.4045 2.76815L12.2565 12.8796L17.0141 1.01593H21.6417L14.503 18.5405ZM24.2875 18.5405H19.7921L23.4938 1.01593H27.9891L24.2875 18.5405ZM33.8048 5.87082C33.9371 4.92695 34.7308 4.38727 35.6567 4.38727C37.1119 4.25176 38.697 4.52277 40.0198 5.19563L40.8135 1.42251C39.4907 0.882827 38.0355 0.611816 36.715 0.611816C32.352 0.611816 29.1772 3.03923 29.1772 6.40816C29.1772 8.97108 31.426 10.3168 33.0134 11.1275C34.7308 11.9358 35.3922 12.4755 35.2599 13.2839C35.2599 14.4964 33.9371 15.0361 32.6165 15.0361C31.0291 15.0361 29.4417 14.6319 27.9889 13.9567L27.1952 17.7322C28.7826 18.405 30.5 18.676 32.0874 18.676C36.9796 18.8092 40.0198 16.3841 40.0198 12.7442C40.0198 8.16038 33.8048 7.89171 33.8048 5.87082ZM55.7526 18.5405L52.1832 1.01593H48.3493C47.5556 1.01593 46.7619 1.55561 46.4973 2.36397L39.8878 18.5405H44.5154L45.439 15.9799H51.1249L51.6541 18.5405H55.7526ZM49.0104 5.73589L50.3309 12.3406H46.6293L49.0104 5.73589Z" fill="#172B85"/>
</g>
</g>
<defs>
<clipPath id="clip0_405_3062">
<rect width="56" height="19" fill="white" transform="translate(0 0.5)"/>
</clipPath>
<clipPath id="clip1_405_3062">
<rect width="56" height="19" fill="white" transform="translate(0 0.5)"/>
</clipPath>
</defs>
</svg>
