<svg width="20" height="21" viewBox="0 0 20 21" fill="none" xmlns="http://www.w3.org/2000/svg">
<path d="M5.94596 9.72877L2.77533 4.05505C2.41076 3.40266 2.22847 3.07647 2.25919 2.8094C2.286 2.57638 2.40975 2.36546 2.60008 2.22839C2.81824 2.07129 3.19191 2.07129 3.93926 2.07129H5.80161C6.07935 2.07129 6.21823 2.07129 6.34279 2.1114C6.45302 2.14689 6.55463 2.20497 6.64116 2.28192C6.73895 2.36889 6.80944 2.48854 6.95041 2.72785L10.0001 7.90462L13.0498 2.72785C13.1907 2.48854 13.2612 2.36889 13.359 2.28192C13.4455 2.20497 13.5472 2.14689 13.6574 2.1114C13.7819 2.07129 13.9208 2.07129 14.1986 2.07129H16.0609C16.8083 2.07129 17.1819 2.07129 17.4001 2.22839C17.5904 2.36546 17.7142 2.57638 17.741 2.8094C17.7717 3.07647 17.5894 3.40266 17.2248 4.05505L14.0542 9.72877M8.75009 12.0713L10.0001 11.238V15.4046M8.95842 15.4046H11.0418M13.8303 9.49112C15.9456 11.6065 15.9456 15.0361 13.8303 17.1515C11.7149 19.2668 8.28527 19.2668 6.16992 17.1515C4.05459 15.0361 4.05459 11.6065 6.16992 9.49112C8.28526 7.37579 11.7149 7.37579 13.8303 9.49112Z" stroke="#717680" stroke-width="1.5" stroke-linecap="round" stroke-linejoin="round"/>
</svg>
