<svg width="20" height="21" viewBox="0 0 20 21" fill="none" xmlns="http://www.w3.org/2000/svg">
<path d="M17.5 17.9048H3.83333C3.36662 17.9048 3.13327 17.9048 2.95501 17.814C2.79821 17.7341 2.67072 17.6066 2.59083 17.4498C2.5 17.2715 2.5 17.0382 2.5 16.5715V2.90479M17.5 6.23812L12.9714 10.7667C12.8064 10.9317 12.7239 11.0142 12.6288 11.0451C12.5451 11.0723 12.4549 11.0723 12.3712 11.0451C12.2761 11.0142 12.1936 10.9317 12.0286 10.7667L10.4714 9.20952C10.3064 9.04452 10.2239 8.96201 10.1288 8.9311C10.0451 8.90391 9.95493 8.90391 9.87124 8.9311C9.77611 8.96201 9.6936 9.04452 9.5286 9.20952L5.83333 12.9048M17.5 6.23812H14.1667M17.5 6.23812V9.57145" stroke="#717680" stroke-width="1.5" stroke-linecap="round" stroke-linejoin="round"/>
</svg>
