<svg width="18" height="18" viewBox="0 0 18 18" fill="none" xmlns="http://www.w3.org/2000/svg">
<path d="M9.75 3.75C9.75 4.57843 7.90317 5.25 5.625 5.25C3.34683 5.25 1.5 4.57843 1.5 3.75M9.75 3.75C9.75 2.92157 7.90317 2.25 5.625 2.25C3.34683 2.25 1.5 2.92157 1.5 3.75M9.75 3.75V7.09286C8.83387 7.36799 8.25 7.7842 8.25 8.25M1.5 3.75V12.75C1.5 13.5784 3.34683 14.25 5.625 14.25C6.62222 14.25 7.53679 14.1213 8.25 13.9071V8.25M1.5 6.75C1.5 7.57843 3.34683 8.25 5.625 8.25C6.62222 8.25 7.53679 8.12132 8.25 7.90714M1.5 9.75C1.5 10.5784 3.34683 11.25 5.625 11.25C6.62222 11.25 7.53679 11.1213 8.25 10.9071M16.5 8.25C16.5 9.07843 14.6532 9.75 12.375 9.75C10.0968 9.75 8.25 9.07843 8.25 8.25M16.5 8.25C16.5 7.42157 14.6532 6.75 12.375 6.75C10.0968 6.75 8.25 7.42157 8.25 8.25M16.5 8.25V14.25C16.5 15.0784 14.6532 15.75 12.375 15.75C10.0968 15.75 8.25 15.0784 8.25 14.25V8.25M16.5 11.25C16.5 12.0784 14.6532 12.75 12.375 12.75C10.0968 12.75 8.25 12.0784 8.25 11.25" stroke="#4E5BA6" stroke-width="1.56" stroke-linecap="round" stroke-linejoin="round"/>
</svg>
