<svg width="16" height="16" viewBox="0 0 16 16" fill="none" xmlns="http://www.w3.org/2000/svg">
<path d="M13.3334 8.3335V4.5335C13.3334 3.41339 13.3334 2.85334 13.1154 2.42552C12.9236 2.04919 12.6177 1.74323 12.2413 1.55148C11.8135 1.3335 11.2535 1.3335 10.1334 1.3335H5.86669C4.74658 1.3335 4.18653 1.3335 3.75871 1.55148C3.38238 1.74323 3.07642 2.04919 2.88467 2.42552C2.66669 2.85334 2.66669 3.41339 2.66669 4.5335V11.4668C2.66669 12.5869 2.66669 13.147 2.88467 13.5748C3.07642 13.9511 3.38238 14.2571 3.75871 14.4488C4.18653 14.6668 4.74658 14.6668 5.86669 14.6668H8.00002M9.33335 7.3335H5.33335M6.66669 10.0002H5.33335M10.6667 4.66683H5.33335M9.66669 12.6668L11 14.0002L14 11.0002" stroke="#252B37" stroke-width="1.5" stroke-linecap="round" stroke-linejoin="round"/>
</svg>
