<svg width="20" height="21" viewBox="0 0 20 21" fill="none" xmlns="http://www.w3.org/2000/svg">
<path d="M10.8186 2.70824C10.5258 2.48053 10.3794 2.36667 10.2178 2.32291C10.0752 2.28429 9.92484 2.28429 9.78221 2.32291C9.62057 2.36667 9.47418 2.48053 9.18141 2.70824L3.52949 7.10418C3.15168 7.39803 2.96278 7.54495 2.82669 7.72895C2.70614 7.89194 2.61633 8.07556 2.56169 8.27078C2.5 8.49117 2.5 8.73049 2.5 9.20912V15.2382C2.5 16.1716 2.5 16.6384 2.68166 16.9949C2.84144 17.3085 3.09641 17.5634 3.41002 17.7232C3.76654 17.9049 4.23325 17.9049 5.16667 17.9049H6.83333C7.06669 17.9049 7.18337 17.9049 7.2725 17.8595C7.3509 17.8195 7.41464 17.7558 7.45459 17.6774C7.5 17.5883 7.5 17.4716 7.5 17.2382V11.7382C7.5 11.2715 7.5 11.0382 7.59083 10.8599C7.67072 10.7031 7.79821 10.5756 7.95501 10.4957C8.13327 10.4049 8.36662 10.4049 8.83333 10.4049H11.1667C11.6334 10.4049 11.8667 10.4049 12.045 10.4957C12.2018 10.5756 12.3293 10.7031 12.4092 10.8599C12.5 11.0382 12.5 11.2715 12.5 11.7382V17.2382C12.5 17.4716 12.5 17.5883 12.5454 17.6774C12.5854 17.7558 12.6491 17.8195 12.7275 17.8595C12.8166 17.9049 12.9333 17.9049 13.1667 17.9049H14.8333C15.7668 17.9049 16.2335 17.9049 16.59 17.7232C16.9036 17.5634 17.1586 17.3085 17.3183 16.9949C17.5 16.6384 17.5 16.1716 17.5 15.2382V9.20912C17.5 8.73049 17.5 8.49117 17.4383 8.27078C17.3837 8.07556 17.2939 7.89194 17.1733 7.72895C17.0372 7.54495 16.8483 7.39803 16.4705 7.10418L10.8186 2.70824Z" stroke="#717680" stroke-width="2.004" stroke-linecap="round" stroke-linejoin="round"/>
</svg>
