<svg width="184" height="48" viewBox="0 0 184 48" fill="none" xmlns="http://www.w3.org/2000/svg">
<path d="M0.363647 47.0065V0.992637H19.6152C21.7798 0.914814 23.9381 1.27192 25.9642 2.04312C27.9903 2.81432 29.8437 3.98418 31.4162 5.48446C32.8759 6.89997 34.03 8.60344 34.8067 10.4885C35.5833 12.3735 35.9657 14.3996 35.93 16.4401C35.9657 18.4807 35.5833 20.5068 34.8067 22.3918C34.03 24.2768 32.8759 25.9803 31.4162 27.3958C29.8306 28.8666 27.9712 30.0064 25.9457 30.7492C23.9201 31.4919 21.7685 31.823 19.6152 31.7233H10.1526V47.0065H0.363647ZM10.1526 22.6849H19.2889C20.1532 22.7203 21.0159 22.5837 21.8278 22.2829C22.6396 21.9821 23.3846 21.523 24.0202 20.932C24.6169 20.3531 25.0853 19.6536 25.3946 18.8794C25.7039 18.1053 25.8471 17.274 25.8148 16.4401C25.8471 15.6063 25.7039 14.775 25.3946 14.0008C25.0853 13.2267 24.6169 12.5272 24.0202 11.9483C23.3846 11.3572 22.6396 10.8982 21.8278 10.5974C21.0159 10.2966 20.1532 10.16 19.2889 10.1954H10.1526V22.6849Z" fill="#001DCA"/>
<path d="M34.5444 40.9813C32.241 38.8095 30.4127 36.1775 29.1767 33.2535C27.9406 30.3294 27.3239 27.1778 27.3659 24C27.3239 20.8222 27.9406 17.6706 29.1767 14.7465C30.4127 11.8225 32.241 9.19048 34.5444 7.0187C36.8659 4.72148 39.6217 2.91717 42.6484 1.71274C45.6751 0.508315 48.9111 -0.0717049 52.1645 0.00707234C55.4258 -0.069773 58.6694 0.510935 61.7047 1.71505C64.7399 2.91917 67.5055 4.72239 69.8389 7.0187C72.1352 9.19321 73.9551 11.827 75.1819 14.7513C76.4087 17.6756 77.0154 20.8258 76.9631 24C77.0154 27.1742 76.4087 30.3244 75.1819 33.2487C73.9551 36.173 72.1352 38.8068 69.8389 40.9813C67.5055 43.2776 64.7399 45.0808 61.7047 46.2849C58.6694 47.4891 55.4258 48.0698 52.1645 47.9929C48.9111 48.0717 45.6751 47.4917 42.6484 46.2873C39.6217 45.0828 36.8659 43.2785 34.5444 40.9813ZM41.7774 13.5921C40.3917 14.9495 39.296 16.5777 38.5572 18.3768C37.8184 20.1759 37.4523 22.1081 37.4811 24.0548C37.4523 26.0015 37.8184 27.9336 38.5572 29.7327C39.296 31.5319 40.3917 33.16 41.7774 34.5174C43.117 35.9237 44.732 37.0345 46.52 37.7794C48.308 38.5243 50.23 38.8871 52.1645 38.8449C54.1067 38.8848 56.0362 38.5211 57.8327 37.7766C59.6292 37.032 61.2541 35.9226 62.606 34.5174C63.9844 33.1573 65.0718 31.5274 65.8013 29.7281C66.5308 27.9287 66.887 25.998 66.8479 24.0548C66.887 22.1116 66.5308 20.1809 65.8013 18.3815C65.0718 16.5821 63.9844 14.9522 62.606 13.5921C61.2541 12.187 59.6292 11.0776 57.8327 10.333C56.0362 9.58845 54.1067 9.22476 52.1645 9.26462C50.234 9.21536 48.3144 9.56961 46.5266 10.305C44.7388 11.0404 43.1218 12.141 41.7774 13.5373V13.5921Z" fill="#001DCA"/>
<path d="M74.0787 40.9813C71.7752 38.8095 69.947 36.1775 68.7109 33.2535C67.4748 30.3294 66.8581 27.1778 66.9001 24C66.8581 20.8222 67.4748 17.6706 68.7109 14.7465C69.947 11.8225 71.7752 9.19048 74.0787 7.0187C76.4002 4.72148 79.156 2.91717 82.1827 1.71274C85.2094 0.508315 88.4453 -0.0717049 91.6987 0.00707234C94.96 -0.069773 98.2036 0.510935 101.239 1.71505C104.274 2.91917 107.04 4.72239 109.373 7.0187C111.66 9.19802 113.469 11.834 114.687 14.758C115.904 17.6821 116.502 20.8298 116.443 24C116.495 27.1742 115.889 30.3244 114.662 33.2487C113.435 36.173 111.615 38.8068 109.319 40.9813C106.985 43.2776 104.22 45.0808 101.185 46.2849C98.1493 47.4891 94.9056 48.0698 91.6443 47.9929C88.4 48.0643 85.1744 47.4807 82.1575 46.2765C79.1407 45.0723 76.3938 43.2718 74.0787 40.9813ZM81.3116 13.5921C79.926 14.9495 78.8302 16.5777 78.0914 18.3768C77.3527 20.1759 76.9865 22.1081 77.0154 24.0548C76.9865 26.0015 77.3527 27.9336 78.0914 29.7327C78.8302 31.5319 79.926 33.16 81.3116 34.5174C84.0819 37.2839 87.8249 38.836 91.7259 38.836C95.6269 38.836 99.3699 37.2839 102.14 34.5174C103.519 33.1573 104.606 31.5274 105.336 29.7281C106.065 27.9287 106.421 25.998 106.382 24.0548C106.421 22.1116 106.065 20.1809 105.336 18.3815C104.606 16.5821 103.519 14.9522 102.14 13.5921C99.3699 10.8257 95.6269 9.27352 91.7259 9.27352C87.8249 9.27352 84.0819 10.8257 81.3116 13.5921Z" fill="#001DCA"/>
<path d="M113.56 40.9813C111.274 38.7985 109.462 36.1631 108.236 33.2408C107.01 30.3185 106.397 27.1723 106.436 24C106.397 20.8277 107.01 17.6815 108.236 14.7592C109.462 11.8368 111.274 9.20146 113.56 7.01868C118.361 2.51754 124.676 0.0151367 131.235 0.0151367C137.793 0.0151367 144.108 2.51754 148.909 7.01868C151.195 9.20146 153.007 11.8368 154.233 14.7592C155.459 17.6815 156.072 20.8277 156.033 24C156.093 27.1603 155.506 30.2992 154.308 33.2209C153.111 36.1425 151.328 38.7843 149.072 40.9813C144.271 45.4824 137.956 47.9848 131.398 47.9848C124.839 47.9848 118.524 45.4824 113.723 40.9813H113.56ZM120.847 13.5921C119.438 14.9257 118.319 16.5392 117.561 18.3307C116.803 20.1221 116.422 22.0526 116.442 24C116.401 25.9485 116.761 27.8845 117.5 29.6855C118.24 31.4865 119.343 33.1132 120.739 34.4626C122.102 35.8374 123.722 36.9279 125.504 37.672C127.286 38.416 129.196 38.799 131.126 38.799C133.055 38.799 134.965 38.416 136.748 37.672C138.53 36.9279 140.149 35.8374 141.513 34.4626C142.909 33.1132 144.012 31.4865 144.751 29.6855C145.491 27.8845 145.851 25.9485 145.809 24C145.851 22.0515 145.491 20.1154 144.751 18.3144C144.012 16.5134 142.909 14.8867 141.513 13.5373C140.149 12.1626 138.53 11.072 136.748 10.328C134.965 9.5839 133.055 9.20092 131.126 9.20092C129.196 9.20092 127.286 9.5839 125.504 10.328C123.722 11.072 122.102 12.1626 120.739 13.5373L120.847 13.5921Z" fill="#001DCA"/>
<path d="M152.638 47.007V0.993164H162.427V37.8042H183.636V47.007H152.638Z" fill="#001DCA"/>
</svg>
