<svg width="20" height="21" viewBox="0 0 20 21" fill="none" xmlns="http://www.w3.org/2000/svg">
<path d="M5.07872 9.76195C5.02692 9.42815 5.00005 9.08617 5.00005 8.73796C5.00005 5.05606 8.00445 2.07129 11.7106 2.07129C15.4167 2.07129 18.4211 5.05606 18.4211 8.73796C18.4211 9.56968 18.2678 10.3658 17.9877 11.1C17.9295 11.2525 17.9005 11.3288 17.8872 11.3883C17.8742 11.4473 17.8691 11.4888 17.8677 11.5492C17.8663 11.6101 17.8745 11.6773 17.8911 11.8116L18.2265 14.5367C18.2629 14.8317 18.281 14.9792 18.2319 15.0865C18.1889 15.1804 18.1126 15.2551 18.0177 15.2959C17.9093 15.3425 17.7623 15.3209 17.4682 15.2778L14.8138 14.8887C14.6752 14.8684 14.6059 14.8582 14.5428 14.8586C14.4803 14.859 14.4371 14.8636 14.376 14.8764C14.3143 14.8894 14.2354 14.919 14.0776 14.9781C13.3415 15.2538 12.5438 15.4046 11.7106 15.4046C11.3621 15.4046 11.0198 15.3782 10.6856 15.3274M6.35973 18.738C8.83048 18.738 10.8334 16.6859 10.8334 14.1546C10.8334 11.6233 8.83048 9.57129 6.35973 9.57129C3.88898 9.57129 1.88605 11.6233 1.88605 14.1546C1.88605 14.6634 1.96698 15.1529 2.11637 15.6102C2.17952 15.8035 2.2111 15.9002 2.22146 15.9662C2.23228 16.0352 2.23418 16.0739 2.23015 16.1436C2.22629 16.2103 2.20959 16.2857 2.1762 16.4365L1.66675 18.738L4.16242 18.3971C4.29864 18.3785 4.36675 18.3692 4.42622 18.3696C4.48885 18.37 4.52209 18.3734 4.5835 18.3857C4.64183 18.3973 4.72855 18.4279 4.90197 18.4891C5.35891 18.6504 5.84934 18.738 6.35973 18.738Z" stroke="#717680" stroke-width="1.4" stroke-linecap="round" stroke-linejoin="round"/>
</svg>
