<svg width="20" height="21" viewBox="0 0 20 21" fill="none" xmlns="http://www.w3.org/2000/svg">
<path d="M1.66675 2.07129H2.75522C2.96023 2.07129 3.06274 2.07129 3.14523 2.10899C3.21793 2.14221 3.27954 2.19564 3.32271 2.26291C3.37169 2.33924 3.38619 2.44072 3.41518 2.64367L3.80961 5.40462M3.80961 5.40462L4.68618 11.8475C4.79742 12.6651 4.85304 13.0739 5.0485 13.3816C5.22073 13.6527 5.46765 13.8683 5.75954 14.0024C6.0908 14.1546 6.50337 14.1546 7.3285 14.1546H14.4601C15.2455 14.1546 15.6383 14.1546 15.9592 14.0133C16.2422 13.8887 16.485 13.6878 16.6603 13.4331C16.8592 13.1443 16.9327 12.7585 17.0796 11.9869L18.1827 6.19603C18.2344 5.92446 18.2603 5.78868 18.2228 5.68254C18.1899 5.58943 18.125 5.51103 18.0397 5.4613C17.9425 5.40462 17.8042 5.40462 17.5278 5.40462H3.80961ZM8.33341 17.9046C8.33341 18.3649 7.96032 18.738 7.50008 18.738C7.03984 18.738 6.66675 18.3649 6.66675 17.9046C6.66675 17.4444 7.03984 17.0713 7.50008 17.0713C7.96032 17.0713 8.33341 17.4444 8.33341 17.9046ZM15.0001 17.9046C15.0001 18.3649 14.627 18.738 14.1667 18.738C13.7065 18.738 13.3334 18.3649 13.3334 17.9046C13.3334 17.4444 13.7065 17.0713 14.1667 17.0713C14.627 17.0713 15.0001 17.4444 15.0001 17.9046Z" stroke="#717680" stroke-width="2.004" stroke-linecap="round" stroke-linejoin="round"/>
</svg>
