<svg width="20" height="21" viewBox="0 0 20 21" fill="none" xmlns="http://www.w3.org/2000/svg">
<path d="M9.40229 3.28259C9.59436 2.89347 9.6904 2.69892 9.82077 2.63675C9.9342 2.58267 10.066 2.58267 10.1794 2.63675C10.3098 2.69892 10.4058 2.89347 10.5979 3.28259L12.4201 6.97423C12.4768 7.0891 12.5052 7.14654 12.5466 7.19114C12.5833 7.23062 12.6273 7.26262 12.6762 7.28534C12.7314 7.31101 12.7948 7.32028 12.9215 7.3388L16.9976 7.93458C17.4268 7.99732 17.6414 8.02869 17.7407 8.13352C17.8271 8.22474 17.8678 8.35007 17.8513 8.47464C17.8324 8.61781 17.6771 8.76914 17.3663 9.07181L14.418 11.9435C14.326 12.033 14.2801 12.0778 14.2504 12.131C14.2242 12.1782 14.2073 12.23 14.2008 12.2836C14.1935 12.3441 14.2043 12.4073 14.226 12.5338L14.9217 16.5899C14.9951 17.0177 15.0318 17.2316 14.9628 17.3586C14.9028 17.469 14.7962 17.5465 14.6726 17.5694C14.5306 17.5957 14.3385 17.4947 13.9543 17.2927L10.3104 15.3764C10.1969 15.3166 10.1401 15.2868 10.0803 15.2751C10.0273 15.2647 9.97286 15.2647 9.91991 15.2751C9.8601 15.2868 9.80333 15.3166 9.6898 15.3764L6.04585 17.2927C5.66168 17.4947 5.46959 17.5957 5.32756 17.5694C5.20398 17.5465 5.09735 17.469 5.03736 17.3586C4.96842 17.2316 5.0051 17.0177 5.07848 16.5899L5.77415 12.5338C5.79584 12.4073 5.80669 12.3441 5.79935 12.2836C5.79285 12.23 5.77601 12.1782 5.74975 12.131C5.7201 12.0778 5.67415 12.033 5.58224 11.9435L2.63388 9.07181C2.32313 8.76914 2.16776 8.61781 2.14885 8.47464C2.1324 8.35007 2.17304 8.22474 2.25946 8.13352C2.35878 8.02869 2.57339 7.99732 3.00262 7.93458L7.07867 7.3388C7.20543 7.32028 7.26882 7.31101 7.32401 7.28534C7.37288 7.26262 7.41688 7.23062 7.45357 7.19114C7.495 7.14654 7.52336 7.0891 7.58006 6.97423L9.40229 3.28259Z" stroke="#717680" stroke-width="1.5" stroke-linecap="round" stroke-linejoin="round"/>
</svg>
