<svg width="20" height="21" viewBox="0 0 20 21" fill="none" xmlns="http://www.w3.org/2000/svg">
<path d="M13.3333 7.07155V4.15543C13.3333 3.46232 13.3333 3.11576 13.1873 2.90278C13.0598 2.7167 12.8622 2.5903 12.6398 2.55245C12.3852 2.50914 12.0706 2.65436 11.4413 2.94482L4.04918 6.35655C3.48792 6.61559 3.20729 6.74511 3.00175 6.94598C2.82005 7.12357 2.68135 7.34034 2.59625 7.57974C2.5 7.85054 2.5 8.15962 2.5 8.77777V12.9049M13.75 12.4882H13.7583M2.5 9.73822L2.5 15.2382C2.5 16.1716 2.5 16.6383 2.68166 16.9949C2.84144 17.3085 3.09641 17.5634 3.41002 17.7232C3.76654 17.9049 4.23325 17.9049 5.16667 17.9049H14.8333C15.7668 17.9049 16.2335 17.9049 16.59 17.7232C16.9036 17.5634 17.1586 17.3085 17.3183 16.9949C17.5 16.6383 17.5 16.1716 17.5 15.2382V9.73822C17.5 8.8048 17.5 8.33809 17.3183 7.98157C17.1586 7.66797 16.9036 7.413 16.59 7.25321C16.2335 7.07155 15.7668 7.07155 14.8333 7.07155L5.16667 7.07155C4.23325 7.07155 3.76654 7.07155 3.41002 7.25321C3.09641 7.413 2.84144 7.66796 2.68166 7.98157C2.5 8.33809 2.5 8.8048 2.5 9.73822ZM14.1667 12.4882C14.1667 12.7183 13.9801 12.9049 13.75 12.9049C13.5199 12.9049 13.3333 12.7183 13.3333 12.4882C13.3333 12.2581 13.5199 12.0716 13.75 12.0716C13.9801 12.0716 14.1667 12.2581 14.1667 12.4882Z" stroke="#717680" stroke-width="1.5" stroke-linecap="round" stroke-linejoin="round"/>
</svg>
