<svg width="17" height="16" viewBox="0 0 17 16" fill="none" xmlns="http://www.w3.org/2000/svg">
<path d="M13.8335 6.33317V4.79984C13.8335 4.0531 13.8335 3.67973 13.6882 3.39452C13.5603 3.14364 13.3564 2.93966 13.1055 2.81183C12.8203 2.66651 12.4469 2.66651 11.7002 2.6665H3.96683C3.22009 2.6665 2.84672 2.6665 2.56151 2.81183C2.31063 2.93966 2.10665 3.14363 1.97882 3.39452C1.8335 3.67973 1.8335 4.0531 1.8335 4.79984V11.1998C1.8335 11.9466 1.8335 12.3199 1.97882 12.6052C2.10665 12.856 2.31063 13.06 2.56151 13.1878C2.84672 13.3332 3.22009 13.3332 3.96683 13.3332L11.7002 13.3332C12.4469 13.3332 12.8203 13.3332 13.1055 13.1878C13.3564 13.06 13.5603 12.856 13.6882 12.6052C13.8335 12.3199 13.8335 11.9466 13.8335 11.1998V9.6665M10.5002 7.99984C10.5002 7.69007 10.5002 7.53518 10.5258 7.40638C10.631 6.87746 11.0445 6.464 11.5734 6.35879C11.7022 6.33317 11.8571 6.33317 12.1668 6.33317H13.5002C13.8099 6.33317 13.9648 6.33317 14.0936 6.35879C14.6225 6.464 15.036 6.87746 15.1412 7.40638C15.1668 7.53518 15.1668 7.69007 15.1668 7.99984C15.1668 8.30961 15.1668 8.46449 15.1412 8.59329C15.036 9.12221 14.6225 9.53568 14.0936 9.64088C13.9648 9.6665 13.8099 9.6665 13.5002 9.6665H12.1668C11.8571 9.6665 11.7022 9.6665 11.5734 9.64088C11.0445 9.53567 10.631 9.12221 10.5258 8.59329C10.5002 8.46449 10.5002 8.30961 10.5002 7.99984Z" stroke="#717680" stroke-linecap="round" stroke-linejoin="round"/>
</svg>
