<svg width="40" height="40" viewBox="0 0 40 40" fill="none" xmlns="http://www.w3.org/2000/svg">
<g clip-path="url(#clip0_1529_5163)">
<path d="M1.24377 26.9583C4.06963 34.5742 11.4005 40.0018 19.9998 40.0018C28.5991 40.0018 35.9299 34.5742 38.7558 26.9583L19.9998 25.2192L1.24377 26.9583Z" fill="#FFDA44"/>
<path d="M19.9998 0.00146484C11.4005 0.00146484 4.06963 5.42897 1.24377 13.045L19.9998 14.784L38.7558 13.0449C35.9299 5.42896 28.5991 0.00146484 19.9998 0.00146484Z" fill="black"/>
<path d="M1.24411 13.043C0.4402 15.2096 0.00012207 17.553 0.00012207 19.9995C0.00012207 22.4459 0.4402 24.7893 1.24411 26.9559H38.7562C39.5601 24.7893 40.0001 22.4459 40.0001 19.9995C40.0001 17.553 39.5601 15.2096 38.7561 13.043H1.24411Z" fill="#D80027"/>
</g>
<defs>
<clipPath id="clip0_1529_5163">
<rect width="40" height="40" fill="white"/>
</clipPath>
</defs>
</svg>
