<svg width="40" height="40" viewBox="0 0 40 40" fill="none" xmlns="http://www.w3.org/2000/svg">
<g clip-path="url(#clip0_802_15901)">
<path d="M20 40C31.0457 40 40 31.0457 40 20C40 8.9543 31.0457 0 20 0C8.9543 0 0 8.9543 0 20C0 31.0457 8.9543 40 20 40Z" fill="#F0F0F0"/>
<path d="M4.13435 7.82178C2.56334 9.86576 1.37873 12.2216 0.688965 14.7809H11.0935L4.13435 7.82178Z" fill="#0052B4"/>
<path d="M39.3116 14.7808C38.6219 12.2216 37.4372 9.86576 35.8662 7.82178L28.9072 14.7808H39.3116Z" fill="#0052B4"/>
<path d="M0.688965 25.2173C1.37881 27.7765 2.56342 30.1324 4.13436 32.1763L11.0933 25.2173H0.688965Z" fill="#0052B4"/>
<path d="M32.1759 4.13297C30.1319 2.56195 27.7761 1.37734 25.2168 0.6875V11.092L32.1759 4.13297Z" fill="#0052B4"/>
<path d="M7.82324 35.8627C9.86723 37.4337 12.2231 38.6183 14.7823 39.3082V28.9038L7.82324 35.8627Z" fill="#0052B4"/>
<path d="M14.7822 0.6875C12.223 1.37734 9.86715 2.56195 7.82324 4.13289L14.7822 11.0919V0.6875Z" fill="#0052B4"/>
<path d="M25.2168 39.3082C27.776 38.6183 30.1319 37.4337 32.1758 35.8628L25.2168 28.9038V39.3082Z" fill="#0052B4"/>
<path d="M28.9072 25.2173L35.8662 32.1763C37.4372 30.1324 38.6219 27.7765 39.3116 25.2173H28.9072Z" fill="#0052B4"/>
<path d="M39.8307 17.3913H22.6088H22.6087V0.169297C21.7548 0.058125 20.8841 0 20 0C19.1157 0 18.2452 0.058125 17.3913 0.169297V17.3912V17.3913H0.169297C0.058125 18.2452 0 19.1159 0 20C0 20.8843 0.058125 21.7548 0.169297 22.6087H17.3912H17.3913V39.8307C18.2452 39.9419 19.1157 40 20 40C20.8841 40 21.7548 39.942 22.6087 39.8307V22.6088V22.6087H39.8307C39.9419 21.7548 40 20.8843 40 20C40 19.1159 39.9419 18.2452 39.8307 17.3913Z" fill="#D80027"/>
<path d="M25.2173 25.2188L34.142 34.1435C34.5524 33.7332 34.944 33.3042 35.3176 32.8595L27.6768 25.2188H25.2173V25.2188Z" fill="#D80027"/>
<path d="M14.7824 25.2188H14.7823L5.85767 34.1434C6.26798 34.5538 6.69696 34.9454 7.14165 35.319L14.7824 27.678V25.2188Z" fill="#D80027"/>
<path d="M14.7822 14.7819V14.7817L5.85751 5.85693C5.44704 6.26725 5.05548 6.69623 4.68188 7.14092L12.3227 14.7818H14.7822V14.7819Z" fill="#D80027"/>
<path d="M25.2173 14.7835L34.1421 5.85865C33.7317 5.44818 33.3028 5.05662 32.8581 4.68311L25.2173 12.324V14.7835Z" fill="#D80027"/>
</g>
<defs>
<clipPath id="clip0_802_15901">
<rect width="40" height="40" fill="white"/>
</clipPath>
</defs>
</svg>
