<svg width="20" height="18" viewBox="0 0 20 18" fill="none" xmlns="http://www.w3.org/2000/svg">
<path d="M7.50008 16.5V10.3333C7.50008 9.86662 7.50008 9.63327 7.59091 9.45501C7.67081 9.29821 7.79829 9.17072 7.95509 9.09083C8.13335 9 8.36671 9 8.83342 9H11.1668C11.6335 9 11.8668 9 12.0451 9.09083C12.2019 9.17072 12.3294 9.29821 12.4093 9.45501C12.5001 9.63327 12.5001 9.86662 12.5001 10.3333V16.5M1.66675 6.91667L9.20008 1.26667C9.48697 1.0515 9.63041 0.943924 9.78795 0.902454C9.927 0.865849 10.0732 0.865849 10.2122 0.902454C10.3698 0.943924 10.5132 1.05151 10.8001 1.26667L18.3334 6.91667M3.33342 5.66667V13.8333C3.33342 14.7668 3.33342 15.2335 3.51507 15.59C3.67486 15.9036 3.92983 16.1586 4.24343 16.3183C4.59995 16.5 5.06666 16.5 6.00008 16.5H14.0001C14.9335 16.5 15.4002 16.5 15.7567 16.3183C16.0703 16.1586 16.3253 15.9036 16.4851 15.59C16.6668 15.2335 16.6668 14.7668 16.6668 13.8333V5.66667L11.6001 1.86667C11.0263 1.43634 10.7394 1.22118 10.4244 1.13824C10.1462 1.06503 9.85392 1.06503 9.57581 1.13824C9.26073 1.22118 8.97385 1.43634 8.40008 1.86667L3.33342 5.66667Z" stroke="#03FF88" stroke-width="1.66667" stroke-linecap="round" stroke-linejoin="round"/>
</svg>
