<svg width="40" height="40" viewBox="0 0 40 40" fill="none" xmlns="http://www.w3.org/2000/svg">
<g clip-path="url(#clip0_802_15889)">
<path d="M20 40C31.0457 40 40 31.0457 40 20C40 8.9543 31.0457 0 20 0C8.9543 0 0 8.9543 0 20C0 31.0457 8.9543 40 20 40Z" fill="#F0F0F0"/>
<path d="M38.7565 13.0435H1.24447C0.440488 15.2101 0.000488281 17.5535 0.000488281 19.9999C0.000488281 22.4463 0.440488 24.7898 1.24447 26.9564H38.7566C39.5605 24.7898 40.0005 22.4463 40.0005 19.9999C40.0005 17.5535 39.5605 15.2101 38.7565 13.0435Z" fill="#0052B4"/>
<path d="M20.0023 -0.000976562C13.9405 -0.000976562 8.50904 2.69621 4.84131 6.95551H35.1633C31.4956 2.69621 26.0641 -0.000976562 20.0023 -0.000976562Z" fill="#D80027"/>
<path d="M35.1616 33.0435H4.8396C8.50733 37.3027 13.9388 39.9999 20.0006 39.9999C26.0624 39.9999 31.4939 37.3027 35.1616 33.0435Z" fill="#D80027"/>
</g>
<defs>
<clipPath id="clip0_802_15889">
<rect width="40" height="40" fill="white"/>
</clipPath>
</defs>
</svg>
