<svg width="32" height="32" viewBox="0 0 32 32" fill="none" xmlns="http://www.w3.org/2000/svg">
<path d="M2.6665 2.6665H4.40806C4.73608 2.6665 4.90009 2.6665 5.03208 2.72682C5.14839 2.77998 5.24697 2.86547 5.31604 2.9731C5.39442 3.09523 5.41761 3.2576 5.464 3.58232L6.09508 7.99984M6.09508 7.99984L7.4976 18.3084C7.67558 19.6165 7.76457 20.2706 8.0773 20.763C8.35288 21.1968 8.74795 21.5418 9.21498 21.7563C9.74499 21.9998 10.4051 21.9998 11.7253 21.9998H23.1358C24.3926 21.9998 25.0209 21.9998 25.5344 21.7737C25.9872 21.5744 26.3756 21.253 26.6562 20.8455C26.9744 20.3833 27.092 19.7661 27.3271 18.5315L29.092 9.26609C29.1747 8.83158 29.2161 8.61433 29.1562 8.4445C29.1035 8.29553 28.9997 8.17008 28.8632 8.09053C28.7076 7.99984 28.4865 7.99984 28.0442 7.99984H6.09508ZM13.3332 27.9998C13.3332 28.7362 12.7362 29.3332 11.9998 29.3332C11.2635 29.3332 10.6665 28.7362 10.6665 27.9998C10.6665 27.2635 11.2635 26.6665 11.9998 26.6665C12.7362 26.6665 13.3332 27.2635 13.3332 27.9998ZM23.9998 27.9998C23.9998 28.7362 23.4029 29.3332 22.6665 29.3332C21.9301 29.3332 21.3332 28.7362 21.3332 27.9998C21.3332 27.2635 21.9301 26.6665 22.6665 26.6665C23.4029 26.6665 23.9998 27.2635 23.9998 27.9998Z" stroke="#717680" stroke-width="2" stroke-linecap="round" stroke-linejoin="round"/>
</svg>
