<svg width="128" height="56" viewBox="0 0 128 56" fill="none" xmlns="http://www.w3.org/2000/svg">
<mask id="mask0_802_15957" style="mask-type:alpha" maskUnits="userSpaceOnUse" x="0" y="0" width="128" height="56">
<rect width="128" height="56" fill="url(#paint0_linear_802_15957)"/>
</mask>
<g mask="url(#mask0_802_15957)">
<path opacity="0.1" d="M128 56V0L123.848 5.04791C119.697 10.0953 111.396 20.1881 103.095 26.0757C94.7938 31.9638 86.4922 33.6461 78.1906 28.5992C75.0281 26.6766 71.8656 23.7774 68.7031 20.8782C63.564 16.167 58.425 11.4557 53.2859 10.9349C46.0913 10.2059 38.8967 17.6902 31.7021 25.1745C30.5951 26.326 29.4882 27.4776 28.3812 28.5992C20.0797 37.0107 11.7781 43.74 3.47656 45.4222C2.31771 45.6571 1.15885 45.7936 0 45.8317V56H128Z" fill="#2B32F9"/>
</g>
<path opacity="0.1" d="M128 30.4165V56H0V37.8273C3.44922 40.1938 6.89258 42.4275 10.3359 44.1293C21.3544 49.575 32.3729 49.575 43.3914 43.0402C48.9006 39.7727 54.4583 34.8717 60.0158 29.9706C65.5734 25.0695 71.131 20.1685 76.6402 16.9011C87.6587 10.3663 98.6772 10.3663 109.696 16.9011C113.34 19.0625 116.985 21.9389 120.636 24.8207C123.087 26.755 125.541 28.6917 128 30.4165Z" fill="#03FF88"/>
<defs>
<linearGradient id="paint0_linear_802_15957" x1="64" y1="0" x2="64" y2="56" gradientUnits="userSpaceOnUse">
<stop/>
<stop offset="1" stop-opacity="0"/>
</linearGradient>
</defs>
</svg>
