<svg width="98" height="50" viewBox="0 0 98 50" fill="none" xmlns="http://www.w3.org/2000/svg">
<mask id="mask0_802_15946" style="mask-type:alpha" maskUnits="userSpaceOnUse" x="1" y="1" width="96" height="48">
<rect width="96" height="48" transform="translate(1 1)" fill="url(#paint0_linear_802_15946)"/>
</mask>
<g mask="url(#mask0_802_15946)">
<path opacity="0.1" d="M4.45455 43.2069L1 49H97V1L95.6364 9.27586H93.8182C93.3333 10.6552 92.3273 13.4138 92.1818 13.4138C92.0364 13.4138 91.0909 15.069 90.6364 15.8966L86.7273 18.3793L84.4546 21.6897L80.8182 18.3793L78.9091 15.8966L76.1818 21.6897H73.3636L71 15.8966C70.0909 15.069 68.2364 13.4138 68.0909 13.4138C67.9454 13.4138 66.7576 11.7586 66.1818 10.931H64.7273L61.2727 13.4138L58.2727 15.8966L56.9091 21.6897L52.8182 24.1724L50.7273 26.6552L48.3636 30.7931L46.0909 36.2241H45.0909L42.3636 36.7414L39.7273 30.7931L37.4545 26.6552H36.0909L33.7273 24.1724L30.3636 26.6552H27.1818L24 30.7931L20.8182 35.7586L18.4545 40.7241L15.9091 43.2069L12.4545 40.7241L9.72727 43.2069L7 45.6897L4.45455 43.2069Z" fill="#17B26A"/>
</g>
<path d="M1 49L4.45455 43.2069L7 45.6897L9.72727 43.2069L12.4545 40.7241L15.9091 43.2069L18.4545 40.7241L20.8182 35.7586L24 30.7931L27.1818 26.6552H30.3636L33.7273 24.1724L36.0909 26.6552H37.4545L39.7273 30.7931L42.3636 36.7414L45.0909 36.2241H46.0909L48.3636 30.7931L50.7273 26.6552L52.8182 24.1724L56.9091 21.6897L58.2727 15.8966L61.2727 13.4138L64.7273 10.931H66.1818C66.7576 11.7586 67.9455 13.4138 68.0909 13.4138C68.2364 13.4138 70.0909 15.069 71 15.8966L73.3636 21.6897H76.1818L78.9091 15.8966L80.8182 18.3793L84.4546 21.6897L86.7273 18.3793L90.6364 15.8966C91.0909 15.069 92.0364 13.4138 92.1818 13.4138C92.3273 13.4138 93.3333 10.6552 93.8182 9.27586H95.6364L97 1" stroke="#2B32F9" stroke-width="2" stroke-linecap="round" stroke-linejoin="round"/>
<g opacity="0.2">
<rect x="55.5" y="2.25" width="17.25" height="17.25" rx="8.625" stroke="#17B26A" stroke-width="2"/>
</g>
<rect x="59.875" y="6.625" width="8.5" height="8.5" rx="4.25" fill="white"/>
<rect x="59.875" y="6.625" width="8.5" height="8.5" rx="4.25" stroke="#2B32F9" stroke-width="2"/>
<defs>
<linearGradient id="paint0_linear_802_15946" x1="48" y1="0" x2="48" y2="48" gradientUnits="userSpaceOnUse">
<stop/>
<stop offset="1" stop-opacity="0"/>
</linearGradient>
</defs>
</svg>
