<svg width="40" height="40" viewBox="0 0 40 40" fill="none" xmlns="http://www.w3.org/2000/svg">
<g clip-path="url(#clip0_802_15892)">
<path d="M20 40C31.0457 40 40 31.0457 40 20C40 8.9543 31.0457 0 20 0C8.9543 0 0 8.9543 0 20C0 31.0457 8.9543 40 20 40Z" fill="#F0F0F0"/>
<path d="M11.3044 26.9546L13.0436 38.7543C15.2101 39.5583 17.5537 39.9981 20.0001 39.9981C28.5993 39.9981 35.9302 34.5706 38.756 26.9546H11.3044Z" fill="black"/>
<path d="M11.3044 13.0445L13.0436 1.2448C15.2101 0.44082 17.5537 0.000976562 20.0001 0.000976562C28.5993 0.000976562 35.9302 5.42848 38.756 13.0445H11.3044Z" fill="#6DA544"/>
<path d="M0.000732422 20.0002C0.000732422 28.5995 5.42831 35.9303 13.0442 38.7562V1.24414C5.42831 4.07 0.000732422 11.4009 0.000732422 20.0002Z" fill="#A2001D"/>
</g>
<defs>
<clipPath id="clip0_802_15892">
<rect width="40" height="40" fill="white"/>
</clipPath>
</defs>
</svg>
