<svg width="40" height="40" viewBox="0 0 40 40" fill="none" xmlns="http://www.w3.org/2000/svg">
<g clip-path="url(#clip0_802_15895)">
<path d="M20 40C31.0457 40 40 31.0457 40 20C40 8.9543 31.0457 0 20 0C8.9543 0 0 8.9543 0 20C0 31.0457 8.9543 40 20 40Z" fill="#F0F0F0"/>
<path d="M19.1301 20.0001H39.9996C39.9996 18.195 39.759 16.4462 39.3107 14.7827H19.1301V20.0001Z" fill="#D80027"/>
<path d="M19.1301 9.5641H37.0642C35.8399 7.56629 34.2745 5.80043 32.4493 4.34668H19.1301V9.5641Z" fill="#D80027"/>
<path d="M19.9997 40.0002C24.7067 40.0002 29.033 38.3733 32.4494 35.6523H7.55005C10.9665 38.3733 15.2928 40.0002 19.9997 40.0002Z" fill="#D80027"/>
<path d="M2.93521 30.4332H37.0643C38.0472 28.8294 38.8094 27.0763 39.3108 25.2158H0.688721C1.19005 27.0763 1.95231 28.8294 2.93521 30.4332Z" fill="#D80027"/>
<path d="M9.26437 3.12328H11.087L9.39164 4.35492L10.0392 6.34781L8.34398 5.11617L6.64875 6.34781L7.20813 4.62617C5.71547 5.86953 4.40719 7.32625 3.32906 8.94938H3.91305L2.83391 9.73336C2.66578 10.0138 2.50453 10.2987 2.35 10.5879L2.86531 12.1739L1.90391 11.4754C1.66492 11.9817 1.44633 12.4995 1.24984 13.028L1.81758 14.7755H3.91305L2.21773 16.0071L2.86531 18L1.17008 16.7684L0.154609 17.5062C0.0529687 18.3232 0 19.1554 0 20H20C20 8.95437 20 7.65219 20 0C16.0491 0 12.366 1.14609 9.26437 3.12328ZM10.0392 18L8.34398 16.7684L6.64875 18L7.29633 16.0071L5.60102 14.7755H7.69648L8.34398 12.7826L8.99148 14.7755H11.087L9.39164 16.0071L10.0392 18ZM9.39164 10.181L10.0392 12.1739L8.34398 10.9423L6.64875 12.1739L7.29633 10.181L5.60102 8.94938H7.69648L8.34398 6.95648L8.99148 8.94938H11.087L9.39164 10.181ZM17.2131 18L15.5179 16.7684L13.8227 18L14.4702 16.0071L12.7749 14.7755H14.8704L15.5179 12.7826L16.1654 14.7755H18.2609L16.5655 16.0071L17.2131 18ZM16.5655 10.181L17.2131 12.1739L15.5179 10.9423L13.8227 12.1739L14.4702 10.181L12.7749 8.94938H14.8704L15.5179 6.95648L16.1654 8.94938H18.2609L16.5655 10.181ZM16.5655 4.35492L17.2131 6.34781L15.5179 5.11617L13.8227 6.34781L14.4702 4.35492L12.7749 3.12328H14.8704L15.5179 1.13039L16.1654 3.12328H18.2609L16.5655 4.35492Z" fill="#0052B4"/>
</g>
<defs>
<clipPath id="clip0_802_15895">
<rect width="40" height="40" fill="white"/>
</clipPath>
</defs>
</svg>
