<svg width="100" height="100" viewBox="0 0 100 100" fill="none" xmlns="http://www.w3.org/2000/svg">
<mask id="mask0_98_23202" style="mask-type:alpha" maskUnits="userSpaceOnUse" x="0" y="0" width="100" height="100">
<rect width="100" height="100" fill="url(#paint0_linear_98_23202)"/>
</mask>
<g mask="url(#mask0_98_23202)">
<circle cx="50" cy="50" r="49.5" fill="#E5E5FF" stroke="#A7A7FF"/>
</g>
<rect x="22" y="22" width="56" height="56" rx="28" fill="#0000FF"/>
<path d="M34.998 35H36.9573C37.3263 35 37.5108 35 37.6593 35.0679C37.7902 35.1277 37.9011 35.2238 37.9788 35.3449C38.0669 35.4823 38.093 35.665 38.1452 36.0303L38.8552 41M38.8552 41L40.433 52.5971C40.6333 54.0688 40.7334 54.8046 41.0852 55.3585C41.3952 55.8466 41.8397 56.2347 42.3651 56.4761C42.9613 56.75 43.704 56.75 45.1892 56.75H58.026C59.4399 56.75 60.1468 56.75 60.7245 56.4956C61.2339 56.2713 61.6708 55.9098 61.9865 55.4513C62.3444 54.9314 62.4767 54.237 62.7413 52.8481L64.7267 42.4245C64.8198 41.9357 64.8664 41.6913 64.7989 41.5002C64.7397 41.3327 64.6229 41.1915 64.4694 41.102C64.2943 41 64.0455 41 63.5479 41H38.8552ZM46.998 63.5C46.998 64.3284 46.3265 65 45.498 65C44.6696 65 43.998 64.3284 43.998 63.5C43.998 62.6716 44.6696 62 45.498 62C46.3265 62 46.998 62.6716 46.998 63.5ZM58.998 63.5C58.998 64.3284 58.3265 65 57.498 65C56.6696 65 55.998 64.3284 55.998 63.5C55.998 62.6716 56.6696 62 57.498 62C58.3265 62 58.998 62.6716 58.998 63.5Z" stroke="#98FB96" stroke-width="2" stroke-linecap="round" stroke-linejoin="round"/>
<defs>
<linearGradient id="paint0_linear_98_23202" x1="50" y1="0" x2="50" y2="100" gradientUnits="userSpaceOnUse">
<stop/>
<stop offset="1" stop-opacity="0"/>
</linearGradient>
</defs>
</svg>
