<svg width="16" height="16" viewBox="0 0 16 16" fill="none" xmlns="http://www.w3.org/2000/svg">
<g clip-path="url(#clip0_353_159548)">
<path d="M5.99967 7.99992L7.33301 9.33325L10.333 6.33325M11.9338 3.33226C12.0711 3.66427 12.3346 3.92818 12.6664 4.06597L13.8298 4.5479C14.1619 4.68544 14.4257 4.94925 14.5632 5.28129C14.7007 5.61333 14.7007 5.98641 14.5632 6.31846L14.0816 7.48112C13.944 7.81331 13.9438 8.18677 14.0821 8.5188L14.5628 9.68112C14.631 9.84557 14.6661 10.0219 14.6661 10.1999C14.6661 10.3779 14.6311 10.5542 14.563 10.7187C14.4948 10.8832 14.395 11.0326 14.2691 11.1585C14.1432 11.2843 13.9937 11.3842 13.8292 11.4522L12.6666 11.9338C12.3346 12.0711 12.0707 12.3346 11.9329 12.6664L11.451 13.8299C11.3134 14.162 11.0496 14.4258 10.7176 14.5633C10.3856 14.7009 10.0125 14.7009 9.68048 14.5633L8.51786 14.0817C8.18582 13.9445 7.81289 13.9448 7.48106 14.0825L6.3176 14.5638C5.98576 14.701 5.61301 14.7009 5.28125 14.5634C4.94949 14.426 4.68584 14.1625 4.54822 13.8308L4.06615 12.667C3.92888 12.335 3.66537 12.0711 3.33357 11.9333L2.17012 11.4513C1.83823 11.3139 1.57451 11.0502 1.43693 10.7184C1.29935 10.3865 1.29916 10.0136 1.43641 9.68161L1.91798 8.51895C2.05518 8.1869 2.0549 7.81395 1.9172 7.48211L1.43632 6.31777C1.36814 6.15332 1.33304 5.97704 1.33301 5.79901C1.33298 5.62098 1.36803 5.44469 1.43616 5.28021C1.50428 5.11573 1.60415 4.96629 1.73005 4.84042C1.85596 4.71455 2.00542 4.61473 2.16992 4.54665L3.33254 4.06506C3.66426 3.9279 3.928 3.66472 4.06588 3.33329L4.5478 2.16979C4.68533 1.83775 4.94913 1.57394 5.28116 1.4364C5.61319 1.29887 5.98625 1.29887 6.31828 1.4364L7.48091 1.918C7.81295 2.05519 8.18588 2.05491 8.51771 1.91722L9.68166 1.43715C10.0136 1.29969 10.3866 1.29972 10.7186 1.43723C11.0506 1.57474 11.3143 1.83847 11.4519 2.17043L11.9339 3.33427L11.9338 3.33226Z" stroke="#717680" stroke-linecap="round" stroke-linejoin="round"/>
</g>
<defs>
<clipPath id="clip0_353_159548">
<rect width="16" height="16" fill="white"/>
</clipPath>
</defs>
</svg>
