<svg width="139" height="37" viewBox="0 0 139 37" fill="none" xmlns="http://www.w3.org/2000/svg">
<path d="M0 35.6509V0.752561H14.601C16.2427 0.693538 17.8796 0.964377 19.4163 1.54928C20.953 2.13419 22.3586 3.02144 23.5513 4.15931C24.6583 5.23288 25.5337 6.52484 26.1227 7.9545C26.7117 9.38416 27.0018 10.9208 26.9747 12.4684C27.0018 14.0161 26.7117 15.5527 26.1227 16.9824C25.5337 18.412 24.6583 19.704 23.5513 20.7776C22.3487 21.8931 20.9385 22.7575 19.4022 23.3209C17.866 23.8842 16.2341 24.1353 14.601 24.0597H7.42423V35.6509H0ZM7.42423 17.2047H14.3535C15.009 17.2315 15.6634 17.1279 16.2791 16.8998C16.8948 16.6717 17.4599 16.3235 17.9419 15.8752C18.3945 15.4362 18.7497 14.9056 18.9843 14.3185C19.2189 13.7314 19.3275 13.1009 19.303 12.4684C19.3275 11.836 19.2189 11.2055 18.9843 10.6184C18.7497 10.0312 18.3945 9.50073 17.9419 9.0617C17.4599 8.6134 16.8948 8.26523 16.2791 8.03711C15.6634 7.80899 15.009 7.70539 14.3535 7.73224H7.42423V17.2047Z" fill="#001DCA"/>
<path d="M25.9237 31.0815C24.1767 29.4344 22.7901 27.4382 21.8526 25.2205C20.9152 23.0028 20.4474 20.6125 20.4793 18.2024C20.4474 15.7922 20.9152 13.4019 21.8526 11.1843C22.7901 8.96658 24.1767 6.97036 25.9237 5.32321C27.6844 3.58093 29.7745 2.21248 32.0701 1.299C34.3656 0.385523 36.8199 -0.0543833 39.2874 0.0053639C41.7608 -0.0529181 44.2209 0.38751 46.5229 1.30075C48.825 2.21399 50.9225 3.58162 52.6922 5.32321C54.4338 6.97243 55.8141 8.97 56.7445 11.1879C57.675 13.4057 58.1351 15.795 58.0954 18.2024C58.1351 20.6098 57.675 22.999 56.7445 25.2169C55.8141 27.4348 54.4338 29.4323 52.6922 31.0815C50.9225 32.8231 48.825 34.1908 46.5229 35.104C44.2209 36.0172 41.7608 36.4577 39.2874 36.3994C36.8199 36.4591 34.3656 36.0192 32.0701 35.1058C29.7745 34.1923 27.6844 32.8238 25.9237 31.0815ZM31.4094 10.3087C30.3585 11.3382 29.5275 12.5731 28.9672 13.9376C28.4068 15.3021 28.1291 16.7675 28.151 18.2439C28.1291 19.7204 28.4068 21.1858 28.9672 22.5503C29.5275 23.9148 30.3585 25.1496 31.4094 26.1792C32.4255 27.2457 33.6503 28.0881 35.0064 28.6531C36.3625 29.2181 37.8202 29.4933 39.2874 29.4613C40.7604 29.4915 42.2238 29.2157 43.5863 28.651C44.9488 28.0863 46.1812 27.2448 47.2065 26.1792C48.252 25.1476 49.0767 23.9114 49.63 22.5467C50.1833 21.182 50.4534 19.7177 50.4237 18.2439C50.4534 16.7701 50.1833 15.3058 49.63 13.9411C49.0767 12.5764 48.252 11.3403 47.2065 10.3087C46.1812 9.24301 44.9488 8.40158 43.5863 7.83689C42.2238 7.2722 40.7604 6.99636 39.2874 7.02659C37.8232 6.98923 36.3673 7.2579 35.0114 7.81565C33.6555 8.37339 32.4291 9.20811 31.4094 10.2672V10.3087Z" fill="#001DCA"/>
<path d="M55.9079 31.0815C54.1608 29.4344 52.7743 27.4382 51.8368 25.2205C50.8993 23.0028 50.4315 20.6125 50.4634 18.2024C50.4315 15.7922 50.8993 13.4019 51.8368 11.1843C52.7743 8.96658 54.1608 6.97036 55.9079 5.32321C57.6686 3.58093 59.7587 2.21248 62.0542 1.299C64.3498 0.385523 66.804 -0.0543833 69.2715 0.0053639C71.745 -0.0529181 74.205 0.38751 76.5071 1.30075C78.8091 2.21399 80.9067 3.58162 82.6764 5.32321C84.4105 6.97608 85.7831 8.97528 86.7063 11.193C87.6296 13.4107 88.0833 15.798 88.0383 18.2024C88.078 20.6098 87.6179 22.999 86.6874 25.2169C85.757 27.4348 84.3767 29.4323 82.6351 31.0815C80.8654 32.8231 78.7679 34.1908 76.4658 35.104C74.1638 36.0172 71.7037 36.4577 69.2303 36.3994C66.7697 36.4535 64.3232 36.0109 62.0351 35.0976C59.7471 34.1843 57.6637 32.8188 55.9079 31.0815ZM61.3936 10.3087C60.3427 11.3382 59.5116 12.5731 58.9513 13.9376C58.391 15.3021 58.1133 16.7675 58.1351 18.2439C58.1133 19.7204 58.391 21.1858 58.9513 22.5503C59.5116 23.9148 60.3427 25.1496 61.3936 26.1792C63.4946 28.2773 66.3335 29.4545 69.2921 29.4545C72.2507 29.4545 75.0896 28.2773 77.1907 26.1792C78.2361 25.1476 79.0608 23.9114 79.6141 22.5467C80.1674 21.182 80.4375 19.7177 80.4078 18.2439C80.4375 16.7701 80.1674 15.3058 79.6141 13.9411C79.0608 12.5764 78.2361 11.3403 77.1907 10.3087C75.0896 8.21055 72.2507 7.03334 69.2921 7.03334C66.3335 7.03334 63.4946 8.21055 61.3936 10.3087Z" fill="#001DCA"/>
<path d="M85.8518 31.0813C84.1183 29.4258 82.7434 27.427 81.8135 25.2106C80.8837 22.9942 80.419 20.6081 80.4486 18.2021C80.419 15.7961 80.8837 13.41 81.8135 11.1936C82.7434 8.97717 84.1183 6.97844 85.8518 5.32295C89.4928 1.90913 94.2824 0.0112305 99.2566 0.0112305C104.231 0.0112305 109.021 1.90913 112.661 5.32295C114.395 6.97844 115.77 8.97717 116.7 11.1936C117.63 13.41 118.094 15.7961 118.065 18.2021C118.11 20.599 117.665 22.9797 116.757 25.1955C115.848 27.4114 114.496 29.415 112.785 31.0813C109.144 34.4951 104.355 36.393 99.3804 36.393C94.4061 36.393 89.6165 34.4951 85.9755 31.0813H85.8518ZM91.3787 10.3084C90.3101 11.3199 89.4614 12.5436 88.8864 13.9023C88.3113 15.261 88.0224 16.7252 88.0378 18.2021C88.006 19.6799 88.2792 21.1483 88.8401 22.5142C89.401 23.8802 90.2374 25.1139 91.2962 26.1373C92.3305 27.18 93.5585 28.0071 94.9103 28.5714C96.262 29.1357 97.7109 29.4262 99.1742 29.4262C100.637 29.4262 102.086 29.1357 103.438 28.5714C104.79 28.0071 106.018 27.18 107.052 26.1373C108.111 25.1139 108.947 23.8802 109.508 22.5142C110.069 21.1483 110.342 19.6799 110.31 18.2021C110.342 16.7243 110.069 15.2559 109.508 13.89C108.947 12.5241 108.111 11.2903 107.052 10.2669C106.018 9.22425 104.79 8.39713 103.438 7.83281C102.086 7.26849 100.637 6.97803 99.1742 6.97803C97.7109 6.97803 96.262 7.26849 94.9103 7.83281C93.5585 8.39713 92.3305 9.22425 91.2962 10.2669L91.3787 10.3084Z" fill="#001DCA"/>
<path d="M115.49 35.6513V0.75293H122.914V28.6716H139V35.6513H115.49Z" fill="#001DCA"/>
</svg>
