<svg width="123" height="32" viewBox="0 0 123 32" fill="none" xmlns="http://www.w3.org/2000/svg">
<g id="Logo Pool">
<path id="Vector" d="M0 31.3376V0.661758H12.8344C14.2774 0.609876 15.7163 0.847945 17.067 1.36208C18.4178 1.87621 19.6534 2.65612 20.7017 3.65631C21.6748 4.59998 22.4443 5.73562 22.962 6.9923C23.4798 8.24898 23.7347 9.5997 23.7109 10.9601C23.7347 12.3205 23.4798 13.6712 22.962 14.9279C22.4443 16.1846 21.6748 17.3202 20.7017 18.2639C19.6446 19.2444 18.405 20.0043 17.0547 20.4994C15.7043 20.9946 14.2699 21.2153 12.8344 21.1489H6.52594V31.3376H0ZM6.52594 15.1232H12.6168C13.193 15.1468 13.7682 15.0558 14.3094 14.8553C14.8507 14.6547 15.3473 14.3487 15.771 13.9546C16.1688 13.5687 16.4811 13.1024 16.6873 12.5863C16.8935 12.0702 16.989 11.516 16.9674 10.9601C16.989 10.4042 16.8935 9.84998 16.6873 9.33388C16.4811 8.81778 16.1688 8.35145 15.771 7.96554C15.3473 7.57148 14.8507 7.26544 14.3094 7.06492C13.7682 6.8644 13.193 6.77333 12.6168 6.79693H6.52594V15.1232Z" fill="#001DCA"/>
<path id="Vector_2" d="M22.787 27.3209C21.2514 25.873 20.0326 24.1183 19.2085 22.169C18.3845 20.2196 17.9733 18.1185 18.0013 16C17.9733 13.8815 18.3845 11.7804 19.2085 9.83103C20.0326 7.88168 21.2514 6.12699 22.787 4.67914C24.3347 3.14766 26.1719 1.94478 28.1897 1.14183C30.2075 0.338877 32.3648 -0.0478033 34.5337 0.0047149C36.7079 -0.0465153 38.8703 0.340623 40.8938 1.14337C42.9174 1.94611 44.7611 3.14826 46.3167 4.67914C47.8475 6.12881 49.0608 7.88468 49.8787 9.83419C50.6966 11.7837 51.101 13.8839 51.0661 16C51.101 18.1161 50.6966 20.2163 49.8787 22.1658C49.0608 24.1153 47.8475 25.8712 46.3167 27.3209C44.7611 28.8517 42.9174 30.0539 40.8938 30.8566C38.8703 31.6594 36.7079 32.0465 34.5337 31.9953C32.3648 32.0478 30.2075 31.6611 28.1897 30.8582C26.1719 30.0552 24.3347 28.8523 22.787 27.3209ZM27.609 9.06141C26.6852 9.96635 25.9547 11.0518 25.4622 12.2512C24.9697 13.4506 24.7256 14.7387 24.7448 16.0365C24.7256 17.3343 24.9697 18.6224 25.4622 19.8218C25.9547 21.0212 26.6852 22.1067 27.609 23.0116C28.5021 23.9491 29.5787 24.6896 30.7707 25.1862C31.9627 25.6829 33.2441 25.9248 34.5337 25.8966C35.8285 25.9232 37.1149 25.6807 38.3125 25.1844C39.5102 24.688 40.5934 23.9484 41.4947 23.0116C42.4137 22.1049 43.1386 21.0183 43.6249 19.8187C44.1113 18.6191 44.3487 17.332 44.3226 16.0365C44.3487 14.741 44.1113 13.4539 43.6249 12.2543C43.1386 11.0548 42.4137 9.96816 41.4947 9.06141C40.5934 8.12466 39.5102 7.38504 38.3125 6.88867C37.1149 6.3923 35.8285 6.14984 34.5337 6.17641C33.2467 6.14358 31.967 6.37974 30.7751 6.87C29.5833 7.36026 28.5052 8.09398 27.609 9.02489V9.06141Z" fill="#001DCA"/>
<path id="Vector_3" d="M49.1435 27.3209C47.6078 25.873 46.389 24.1183 45.565 22.169C44.7409 20.2196 44.3298 18.1185 44.3578 16C44.3298 13.8815 44.7409 11.7804 45.565 9.83103C46.389 7.88168 47.6078 6.12699 49.1435 4.67913C50.6911 3.14766 52.5283 1.94478 54.5461 1.14183C56.5639 0.338877 58.7213 -0.0478032 60.8902 0.0047149C63.0644 -0.0465153 65.2268 0.340623 67.2503 1.14337C69.2738 1.94611 71.1175 3.14826 72.6731 4.67913C74.1974 6.13202 75.4039 7.88932 76.2155 9.83868C77.0271 11.788 77.4258 13.8865 77.3863 16C77.4212 18.1161 77.0168 20.2163 76.1989 22.1658C75.381 24.1153 74.1677 25.8712 72.6369 27.3209C71.0813 28.8517 69.2375 30.0539 67.214 30.8566C65.1905 31.6594 63.0281 32.0465 60.8539 31.9953C58.691 32.0429 56.5406 31.6538 54.5294 30.851C52.5182 30.0482 50.6869 28.8479 49.1435 27.3209ZM53.9654 9.0614C53.0417 9.96635 52.3112 11.0518 51.8186 12.2512C51.3261 13.4506 51.082 14.7387 51.1013 16.0365C51.082 17.3343 51.3261 18.6224 51.8186 19.8218C52.3112 21.0212 53.0417 22.1067 53.9654 23.0116C55.8123 24.8559 58.3077 25.8907 60.9083 25.8907C63.5089 25.8907 66.0043 24.8559 67.8512 23.0116C68.7701 22.1049 69.495 21.0183 69.9814 19.8187C70.4677 18.6191 70.7052 17.332 70.6791 16.0365C70.7052 14.741 70.4677 13.4539 69.9814 12.2543C69.495 11.0548 68.7701 9.96816 67.8512 9.0614C66.0043 7.21712 63.5089 6.18234 60.9083 6.18234C58.3077 6.18234 55.8123 7.21712 53.9654 9.0614Z" fill="#001DCA"/>
<path id="Vector_4" d="M75.4645 27.321C73.9407 25.8658 72.7322 24.1089 71.9148 22.1607C71.0975 20.2125 70.689 18.115 70.715 16.0001C70.689 13.8853 71.0975 11.7878 71.9148 9.8396C72.7322 7.89137 73.9407 6.13447 75.4645 4.67929C78.6649 1.67852 82.875 0.0102539 87.2474 0.0102539C91.6198 0.0102539 95.8299 1.67852 99.0304 4.67929C100.554 6.13447 101.763 7.89137 102.58 9.8396C103.397 11.7878 103.806 13.8853 103.78 16.0001C103.82 18.107 103.428 20.1996 102.63 22.1474C101.832 24.0952 100.643 25.8563 99.1391 27.321C95.9387 30.3218 91.7286 31.99 87.3562 31.99C82.9838 31.99 78.7737 30.3218 75.5732 27.321H75.4645ZM80.3227 9.06155C79.3833 9.9506 78.6374 11.0263 78.1319 12.2206C77.6264 13.4149 77.3724 14.7019 77.386 16.0001C77.3581 17.2992 77.5982 18.5898 78.0912 19.7905C78.5843 20.9912 79.3194 22.0756 80.2502 22.9753C81.1593 23.8917 82.2387 24.6188 83.4269 25.1148C84.6151 25.6109 85.8887 25.8662 87.1749 25.8662C88.4611 25.8662 89.7347 25.6109 90.9229 25.1148C92.1111 24.6188 93.1906 23.8917 94.0997 22.9753C95.0304 22.0756 95.7655 20.9912 96.2586 19.7905C96.7516 18.5898 96.9917 17.2992 96.9638 16.0001C96.9917 14.7011 96.7516 13.4104 96.2586 12.2098C95.7655 11.0091 95.0304 9.92464 94.0997 9.02503C93.1906 8.10855 92.1111 7.38151 90.9229 6.88547C89.7347 6.38943 88.4611 6.13411 87.1749 6.13411C85.8887 6.13411 84.6151 6.38943 83.4269 6.88547C82.2387 7.38151 81.1593 8.10855 80.2502 9.02503L80.3227 9.06155Z" fill="#001DCA"/>
<path id="Vector_5" d="M101.517 31.338V0.662109H108.043V25.2028H122.182V31.338H101.517Z" fill="#001DCA"/>
</g>
</svg>
