<svg width="207" height="54" viewBox="0 0 207 54" fill="none" xmlns="http://www.w3.org/2000/svg">
<path d="M0 52.8828V1.11723H21.6577C24.0929 1.02968 26.5209 1.43143 28.8003 2.29903C31.0797 3.16663 33.1647 4.48272 34.9338 6.17054C36.5759 7.76299 37.8743 9.67938 38.748 11.8C39.6217 13.9207 40.0519 16.2 40.0118 18.4957C40.0519 20.7913 39.6217 23.0707 38.748 25.1913C37.8743 27.312 36.5759 29.2283 34.9338 30.8208C33.1499 32.4755 31.0582 33.7577 28.7795 34.5933C26.5007 35.4289 24.0802 35.8014 21.6577 35.6892H11.0124V52.8828H0ZM11.0124 25.521H21.2907C22.263 25.5608 23.2336 25.4071 24.1469 25.0688C25.0602 24.7304 25.8983 24.2139 26.6133 23.549C27.2846 22.8977 27.8116 22.1108 28.1595 21.2399C28.5075 20.369 28.6686 19.4338 28.6323 18.4957C28.6686 17.5576 28.5075 16.6224 28.1595 15.7514C27.8116 14.8805 27.2846 14.0936 26.6133 13.4424C25.8983 12.7774 25.0602 12.261 24.1469 11.9226C23.2336 11.5842 22.263 11.4305 21.2907 11.4703H11.0124V25.521Z" fill="#2B32F9"/>
<path d="M38.453 46.104C35.8616 43.6607 33.8049 40.6997 32.4143 37.4101C31.0238 34.1206 30.33 30.575 30.3773 27C30.33 23.425 31.0238 19.8794 32.4143 16.5899C33.8049 13.3003 35.8616 10.3393 38.453 7.89604C41.0647 5.31167 44.1649 3.28182 47.5699 1.92684C50.9749 0.571855 54.6154 -0.080668 58.2754 0.00795639C61.9443 -0.0784946 65.5933 0.574802 69.008 1.92943C72.4226 3.28407 75.5339 5.31269 78.1589 7.89604C80.7422 10.3424 82.7896 13.3054 84.1697 16.5952C85.5499 19.885 86.2324 23.429 86.1735 27C86.2324 30.571 85.5499 34.115 84.1697 37.4048C82.7896 40.6946 80.7422 43.6576 78.1589 46.104C75.5339 48.6873 72.4226 50.7159 69.008 52.0706C65.5933 53.4252 61.9443 54.0785 58.2754 53.992C54.6154 54.0807 50.9749 53.4281 47.5699 52.0732C44.1649 50.7182 41.0647 48.6883 38.453 46.104ZM46.59 15.2911C45.0312 16.8182 43.7984 18.6499 42.9673 20.6739C42.1362 22.6979 41.7243 24.8716 41.7568 27.0616C41.7243 29.2517 42.1362 31.4253 42.9673 33.4493C43.7984 35.4733 45.0312 37.305 46.59 38.8321C48.0971 40.4142 49.9139 41.6638 51.9254 42.5018C53.9368 43.3398 56.0992 43.748 58.2754 43.7006C60.4603 43.7454 62.631 43.3362 64.652 42.4986C66.673 41.661 68.501 40.4129 70.0219 38.8321C71.5726 37.302 72.7959 35.4683 73.6166 33.4441C74.4373 31.4198 74.838 29.2477 74.794 27.0616C74.838 24.8755 74.4373 22.7035 73.6166 20.6792C72.7959 18.6549 71.5726 16.8213 70.0219 15.2911C68.501 13.7104 66.673 12.4622 64.652 11.6246C62.631 10.787 60.4603 10.3779 58.2754 10.4227C56.1036 10.3673 53.944 10.7658 51.9328 11.5931C49.9216 12.4204 48.1024 13.6586 46.59 15.2295V15.2911Z" fill="#2B32F9"/>
<path d="M82.9297 46.1039C80.3383 43.6607 78.2816 40.6996 76.891 37.4101C75.5005 34.1206 74.8066 30.575 74.854 27C74.8066 23.425 75.5005 19.8794 76.891 16.5899C78.2816 13.3003 80.3383 10.3393 82.9297 7.89604C85.5414 5.31167 88.6416 3.28182 92.0466 1.92683C95.4516 0.571854 99.092 -0.080668 102.752 0.00795639C106.421 -0.0784946 110.07 0.574802 113.485 1.92943C116.899 3.28407 120.011 5.31269 122.636 7.89604C125.208 10.3478 127.244 13.3132 128.613 16.6028C129.983 19.8923 130.656 23.4335 130.589 27C130.648 30.571 129.965 34.115 128.585 37.4048C127.205 40.6946 125.158 43.6576 122.574 46.1039C119.949 48.6873 116.838 50.7159 113.423 52.0705C110.009 53.4252 106.36 54.0785 102.691 53.992C99.0411 54.0724 95.4122 53.4158 92.0183 52.061C88.6244 50.7063 85.5341 48.6808 82.9297 46.1039ZM91.0667 15.2911C89.5079 16.8182 88.2751 18.6499 87.444 20.6739C86.6129 22.6979 86.201 24.8716 86.2334 27.0616C86.201 29.2517 86.6129 31.4253 87.444 33.4493C88.2751 35.4733 89.5079 37.305 91.0667 38.8321C94.1832 41.9443 98.3941 43.6905 102.783 43.6905C107.171 43.6905 111.382 41.9443 114.499 38.8321C116.049 37.302 117.273 35.4683 118.093 33.444C118.914 31.4198 119.315 29.2477 119.271 27.0616C119.315 24.8755 118.914 22.7035 118.093 20.6792C117.273 18.6549 116.049 16.8213 114.499 15.2911C111.382 12.1789 107.171 10.4327 102.783 10.4327C98.3941 10.4327 94.1832 12.1789 91.0667 15.2911Z" fill="#2B32F9"/>
<path d="M127.345 46.1035C124.773 43.6479 122.734 40.6831 121.355 37.3955C119.976 34.1078 119.286 30.5684 119.33 26.9995C119.286 23.4307 119.976 19.8913 121.355 16.6036C122.734 13.316 124.773 10.3512 127.345 7.89559C132.746 2.8318 139.85 0.0166016 147.228 0.0166016C154.607 0.0166016 161.711 2.8318 167.112 7.89559C169.683 10.3512 171.723 13.316 173.102 16.6036C174.481 19.8913 175.17 23.4307 175.126 26.9995C175.194 30.5549 174.534 34.0862 173.186 37.3731C171.839 40.6599 169.834 43.6319 167.295 46.1035C161.895 51.1673 154.79 53.9825 147.412 53.9825C140.034 53.9825 132.929 51.1673 127.528 46.1035H127.345ZM135.543 15.2907C133.958 16.7909 132.699 18.6062 131.846 20.6216C130.993 22.637 130.564 24.8088 130.587 26.9995C130.54 29.1916 130.945 31.3697 131.777 33.3958C132.609 35.4219 133.85 37.252 135.421 38.77C136.955 40.3166 138.776 41.5435 140.781 42.3806C142.786 43.2176 144.936 43.6485 147.106 43.6485C149.276 43.6485 151.426 43.2176 153.431 42.3806C155.436 41.5435 157.257 40.3166 158.791 38.77C160.362 37.252 161.603 35.4219 162.434 33.3958C163.266 31.3697 163.672 29.1916 163.625 26.9995C163.672 24.8075 163.266 22.6294 162.434 20.6033C161.603 18.5772 160.362 16.7471 158.791 15.229C157.257 13.6825 155.436 12.4556 153.431 11.6185C151.426 10.7815 149.276 10.3506 147.106 10.3506C144.936 10.3506 142.786 10.7815 140.781 11.6185C138.776 12.4556 136.955 13.6825 135.421 15.229L135.543 15.2907Z" fill="#2B32F9"/>
<path d="M171.31 52.8828V1.11719H182.322V42.5296H206.182V52.8828H171.31Z" fill="#2B32F9"/>
</svg>
