<svg width="29" height="24" viewBox="0 0 29 24" fill="none" xmlns="http://www.w3.org/2000/svg">
<path d="M7.84927 0L11.7504 5.2731C10.9357 5.66735 10.121 6.16016 9.30632 6.75154C8.52296 7.34291 7.88061 8.13142 7.37926 9.11704C6.90924 10.1027 6.67423 11.4168 6.67423 13.0595L0 12.8131C0 10.2834 0.438682 8.16427 1.31605 6.45585C2.19341 4.71458 3.22744 3.31827 4.41815 2.26694C5.64019 1.2156 6.7839 0.459957 7.84927 0ZM10.8104 12.8131V24H0V12.8131H10.8104ZM25.0989 0L29 5.2731C28.154 5.66735 27.3393 6.16016 26.5559 6.75154C25.7726 7.34291 25.1302 8.13142 24.6288 9.11704C24.1275 10.1027 23.8768 11.4168 23.8768 13.0595L17.2496 12.8131C17.2496 10.2834 17.6726 8.16427 18.5186 6.45585C19.396 4.71458 20.4457 3.31827 21.6677 2.26694C22.8898 1.2156 24.0335 0.459957 25.0989 0ZM28.06 12.8131V24H17.2496V12.8131H28.06Z" fill="#2B32F9"/>
</svg>
