<svg width="313" height="128" viewBox="0 0 313 128" fill="none" xmlns="http://www.w3.org/2000/svg">
<g filter="url(#filter0_d_363_6298)">
<rect x="21" y="9" width="271" height="86" rx="8" fill="white"/>
<rect x="33.5" y="67.5" width="246" height="15" rx="7.5" stroke="#E9EDF4"/>
<path d="M37 75C37 72.7909 38.7909 71 41 71H149V79H41C38.7909 79 37 77.2091 37 75Z" fill="#2B32F9"/>
<rect x="149" y="71" width="33" height="8" fill="#00CDFC"/>
<path d="M182 71H272C274.209 71 276 72.7909 276 75C276 77.2091 274.209 79 272 79H182V71Z" fill="#98FB96"/>
<g clip-path="url(#clip0_363_6298)">
<path d="M229.902 30.3C230.584 29.8228 231.137 29.1971 231.517 28.4744C231.898 27.7517 232.094 26.9527 232.09 26.143C232.09 23.314 229.677 21 226.732 21C225.792 21.0019 224.869 21.2403 224.054 21.6914C223.239 22.1425 222.562 22.7905 222.09 23.571C219.232 23.657 216.91 25.929 216.91 28.714C216.91 30.429 217.759 31.929 219.098 32.871C217.903 33.4312 216.896 34.3032 216.194 35.3872C215.491 36.4712 215.121 37.7233 215.125 39H216.91C216.91 36.986 218.16 35.229 219.902 34.371C220.572 34.071 221.285 33.857 222.09 33.857H222.268C225.215 33.857 227.625 36.171 227.625 39H229.41C229.41 36.3 227.803 33.986 225.438 32.871C226.029 32.4375 226.529 31.8996 226.91 31.286C229.768 31.371 232.09 33.643 232.09 36.429H233.875C233.875 33.729 232.268 31.414 229.902 30.3ZM221.285 32.014C219.813 31.586 218.698 30.3 218.698 28.714C218.698 27.086 219.858 25.757 221.421 25.371C221.689 25.329 221.956 25.286 222.269 25.286C222.626 25.286 222.939 25.329 223.251 25.414C224.769 25.843 225.841 27.129 225.841 28.714C225.841 28.971 225.796 29.186 225.751 29.443C225.394 30.986 223.966 32.143 222.269 32.143C221.911 32.143 221.599 32.1 221.286 32.014H221.285ZM227.58 29.486C227.625 29.229 227.625 28.971 227.625 28.714C227.625 26.486 226.152 24.6 224.053 23.871C224.386 23.5041 224.798 23.2108 225.261 23.0111C225.723 22.8114 226.225 22.71 226.732 22.714C227.679 22.7169 228.585 23.0791 229.254 23.7216C229.923 24.3641 230.3 25.2346 230.303 26.143C230.303 27.771 229.143 29.1 227.58 29.486Z" fill="#2B32F9"/>
</g>
<path d="M245.062 34.64H252.262V38H240.382C240.382 36.928 240.534 35.952 240.838 35.072C241.142 34.192 241.526 33.464 241.99 32.888C242.47 32.296 242.998 31.76 243.574 31.28C244.166 30.8 244.75 30.376 245.326 30.008C245.918 29.624 246.446 29.264 246.91 28.928C247.39 28.576 247.782 28.184 248.086 27.752C248.39 27.32 248.542 26.856 248.542 26.36C248.542 25.736 248.318 25.224 247.87 24.824C247.422 24.408 246.846 24.2 246.142 24.2C245.294 24.2 244.558 24.544 243.934 25.232C243.646 25.552 243.422 25.888 243.262 26.24L240.382 24.8C240.702 24.048 241.118 23.392 241.63 22.832C242.862 21.504 244.446 20.84 246.382 20.84C248.142 20.84 249.558 21.344 250.63 22.352C251.718 23.344 252.262 24.6 252.262 26.12C252.262 27.016 252.078 27.824 251.71 28.544C251.342 29.248 250.862 29.848 250.27 30.344C249.678 30.84 249.07 31.296 248.446 31.712C247.822 32.128 247.182 32.592 246.526 33.104C245.886 33.6 245.398 34.112 245.062 34.64ZM257.907 34.64H265.107V38H253.227C253.227 36.928 253.379 35.952 253.683 35.072C253.987 34.192 254.371 33.464 254.835 32.888C255.315 32.296 255.843 31.76 256.419 31.28C257.011 30.8 257.595 30.376 258.171 30.008C258.763 29.624 259.291 29.264 259.755 28.928C260.235 28.576 260.627 28.184 260.931 27.752C261.235 27.32 261.387 26.856 261.387 26.36C261.387 25.736 261.163 25.224 260.715 24.824C260.267 24.408 259.691 24.2 258.987 24.2C258.139 24.2 257.403 24.544 256.779 25.232C256.491 25.552 256.267 25.888 256.107 26.24L253.227 24.8C253.547 24.048 253.963 23.392 254.475 22.832C255.707 21.504 257.291 20.84 259.227 20.84C260.987 20.84 262.403 21.344 263.475 22.352C264.563 23.344 265.107 24.6 265.107 26.12C265.107 27.016 264.923 27.824 264.555 28.544C264.187 29.248 263.707 29.848 263.115 30.344C262.523 30.84 261.915 31.296 261.291 31.712C260.667 32.128 260.027 32.592 259.371 33.104C258.731 33.6 258.243 34.112 257.907 34.64ZM267.752 28.4L272.432 21.2H276.152L272.552 26.72L272.792 26.672C273.128 26.624 273.328 26.6 273.392 26.6C274.912 26.6 276.232 27.184 277.352 28.352C278.472 29.504 279.032 30.88 279.032 32.48C279.032 34.128 278.432 35.52 277.232 36.656C276.032 37.792 274.512 38.36 272.672 38.36C270.832 38.36 269.312 37.792 268.112 36.656C266.912 35.52 266.312 34.128 266.312 32.48C266.312 31.536 266.552 30.568 267.032 29.576C267.24 29.176 267.48 28.784 267.752 28.4ZM270.752 34.4C271.248 34.88 271.888 35.12 272.672 35.12C273.456 35.12 274.088 34.88 274.568 34.4C275.064 33.904 275.312 33.264 275.312 32.48C275.312 31.696 275.064 31.064 274.568 30.584C274.088 30.088 273.456 29.84 272.672 29.84C271.888 29.84 271.248 30.088 270.752 30.584C270.272 31.064 270.032 31.696 270.032 32.48C270.032 33.264 270.272 33.904 270.752 34.4Z" fill="#2B32F9"/>
<path d="M235.732 52V46.24H236.932V52H235.732ZM235.828 44.956C235.684 44.82 235.612 44.648 235.612 44.44C235.612 44.232 235.684 44.06 235.828 43.924C235.972 43.788 236.14 43.72 236.332 43.72C236.524 43.72 236.692 43.788 236.836 43.924C236.98 44.06 237.052 44.232 237.052 44.44C237.052 44.648 236.98 44.82 236.836 44.956C236.692 45.092 236.524 45.16 236.332 45.16C236.14 45.16 235.972 45.092 235.828 44.956ZM238.192 52V46.24H239.392V47.08C239.512 46.904 239.66 46.744 239.836 46.6C240.236 46.28 240.688 46.12 241.192 46.12C241.864 46.12 242.412 46.348 242.836 46.804C243.26 47.252 243.472 47.864 243.472 48.64V52H242.272V48.64C242.272 48.216 242.148 47.88 241.9 47.632C241.66 47.384 241.344 47.26 240.952 47.26C240.496 47.26 240.12 47.412 239.824 47.716C239.536 48.012 239.392 48.4 239.392 48.88V52H238.192ZM246.116 52L243.836 46.24H245.156L246.776 50.5L248.396 46.24H249.716L247.436 52H246.116ZM254.573 50.2L255.293 51.04C255.141 51.24 254.941 51.42 254.693 51.58C254.149 51.94 253.529 52.12 252.833 52.12C251.993 52.12 251.281 51.832 250.697 51.256C250.121 50.672 249.833 49.96 249.833 49.12C249.833 48.28 250.117 47.572 250.685 46.996C251.261 46.412 251.957 46.12 252.773 46.12C253.589 46.12 254.261 46.388 254.789 46.924C255.325 47.452 255.593 48.124 255.593 48.94C255.593 49.012 255.581 49.156 255.557 49.372L255.533 49.54H251.093C251.165 49.948 251.365 50.292 251.693 50.572C252.021 50.844 252.421 50.98 252.893 50.98C253.325 50.98 253.733 50.852 254.117 50.596C254.293 50.484 254.445 50.352 254.573 50.2ZM251.093 48.52H254.333C254.237 48.112 254.057 47.792 253.793 47.56C253.529 47.32 253.189 47.2 252.773 47.2C251.925 47.2 251.365 47.64 251.093 48.52ZM255.888 51.04L256.668 50.26C256.796 50.42 256.932 50.552 257.076 50.656C257.444 50.912 257.808 51.04 258.168 51.04C258.488 51.04 258.736 50.972 258.912 50.836C259.096 50.692 259.188 50.52 259.188 50.32C259.188 50.144 259.08 50 258.864 49.888C258.656 49.776 258.404 49.68 258.108 49.6C257.812 49.52 257.512 49.424 257.208 49.312C256.912 49.192 256.656 49.004 256.44 48.748C256.232 48.492 256.128 48.176 256.128 47.8C256.128 47.336 256.32 46.94 256.704 46.612C257.088 46.284 257.596 46.12 258.228 46.12C258.788 46.12 259.3 46.252 259.764 46.516C259.964 46.62 260.132 46.748 260.268 46.9L259.488 47.68C259.376 47.576 259.264 47.496 259.152 47.44C258.872 47.28 258.564 47.2 258.228 47.2C257.94 47.2 257.716 47.26 257.556 47.38C257.404 47.5 257.328 47.64 257.328 47.8C257.328 47.976 257.432 48.12 257.64 48.232C257.856 48.344 258.112 48.444 258.408 48.532C258.704 48.612 259 48.712 259.296 48.832C259.6 48.944 259.856 49.128 260.064 49.384C260.28 49.632 260.388 49.944 260.388 50.32C260.388 50.824 260.184 51.252 259.776 51.604C259.376 51.948 258.84 52.12 258.168 52.12C257.536 52.12 256.968 51.94 256.464 51.58C256.232 51.428 256.04 51.248 255.888 51.04ZM261.763 50.2V47.38H260.683V46.24H261.343C261.535 46.24 261.671 46.192 261.751 46.096C261.839 45.992 261.883 45.82 261.883 45.58V44.32H262.963V46.24H264.283V47.38H262.963V50.08C262.963 50.68 263.243 50.98 263.803 50.98C263.963 50.98 264.119 50.952 264.271 50.896L264.463 50.8V51.94L264.211 52.036C264.027 52.092 263.811 52.12 263.563 52.12C262.987 52.12 262.543 51.956 262.231 51.628C261.919 51.3 261.763 50.824 261.763 50.2ZM265.804 51.256C265.228 50.672 264.94 49.96 264.94 49.12C264.94 48.28 265.228 47.572 265.804 46.996C266.388 46.412 267.1 46.12 267.94 46.12C268.78 46.12 269.488 46.412 270.064 46.996C270.648 47.572 270.94 48.28 270.94 49.12C270.94 49.96 270.648 50.672 270.064 51.256C269.488 51.832 268.78 52.12 267.94 52.12C267.1 52.12 266.388 51.832 265.804 51.256ZM266.656 50.464C267 50.808 267.428 50.98 267.94 50.98C268.452 50.98 268.88 50.808 269.224 50.464C269.568 50.112 269.74 49.664 269.74 49.12C269.74 48.576 269.568 48.132 269.224 47.788C268.88 47.436 268.452 47.26 267.94 47.26C267.428 47.26 267 47.436 266.656 47.788C266.312 48.132 266.14 48.576 266.14 49.12C266.14 49.664 266.312 50.112 266.656 50.464ZM271.781 52V46.24H272.981V47.02C273.141 46.828 273.289 46.68 273.425 46.576C273.809 46.272 274.241 46.12 274.721 46.12H275.021V47.38L274.865 47.356C274.673 47.332 274.565 47.32 274.541 47.32C274.117 47.32 273.749 47.488 273.437 47.824C273.133 48.152 272.981 48.564 272.981 49.06V52H271.781ZM275.085 51.04L275.865 50.26C275.993 50.42 276.129 50.552 276.273 50.656C276.641 50.912 277.005 51.04 277.365 51.04C277.685 51.04 277.933 50.972 278.109 50.836C278.293 50.692 278.385 50.52 278.385 50.32C278.385 50.144 278.277 50 278.061 49.888C277.853 49.776 277.601 49.68 277.305 49.6C277.009 49.52 276.709 49.424 276.405 49.312C276.109 49.192 275.853 49.004 275.637 48.748C275.429 48.492 275.325 48.176 275.325 47.8C275.325 47.336 275.517 46.94 275.901 46.612C276.285 46.284 276.793 46.12 277.425 46.12C277.985 46.12 278.497 46.252 278.961 46.516C279.161 46.62 279.329 46.748 279.465 46.9L278.685 47.68C278.573 47.576 278.461 47.496 278.349 47.44C278.069 47.28 277.761 47.2 277.425 47.2C277.137 47.2 276.913 47.26 276.753 47.38C276.601 47.5 276.525 47.64 276.525 47.8C276.525 47.976 276.629 48.12 276.837 48.232C277.053 48.344 277.309 48.444 277.605 48.532C277.901 48.612 278.197 48.712 278.493 48.832C278.797 48.944 279.053 49.128 279.261 49.384C279.477 49.632 279.585 49.944 279.585 50.32C279.585 50.824 279.381 51.252 278.973 51.604C278.573 51.948 278.037 52.12 277.365 52.12C276.733 52.12 276.165 51.94 275.661 51.58C275.429 51.428 275.237 51.248 275.085 51.04Z" fill="#80858F"/>
<path d="M33.14 31L37.06 21.2H38.74L42.66 31H41.05L40.07 28.48H35.73L34.75 31H33.14ZM36.29 27.08H39.51L37.9 23.02L36.29 27.08ZM43.2927 31V21.2H44.6927V31H43.2927ZM46.2327 31V21.2H47.6327V31H46.2327ZM52.1822 28.9V25.61H50.9222V24.28H51.6922C51.9162 24.28 52.0749 24.224 52.1682 24.112C52.2709 23.9907 52.3222 23.79 52.3222 23.51V22.04H53.5822V24.28H55.1222V25.61H53.5822V28.76C53.5822 29.46 53.9089 29.81 54.5622 29.81C54.7489 29.81 54.9309 29.7773 55.1082 29.712L55.3322 29.6V30.93L55.0382 31.042C54.8235 31.1073 54.5715 31.14 54.2822 31.14C53.6102 31.14 53.0922 30.9487 52.7282 30.566C52.3642 30.1833 52.1822 29.628 52.1822 28.9ZM56.5156 31V24.28H57.9156V31H56.5156ZM56.6276 22.782C56.4596 22.6233 56.3756 22.4227 56.3756 22.18C56.3756 21.9373 56.4596 21.7367 56.6276 21.578C56.7956 21.4193 56.9916 21.34 57.2156 21.34C57.4396 21.34 57.6356 21.4193 57.8036 21.578C57.9716 21.7367 58.0556 21.9373 58.0556 22.18C58.0556 22.4227 57.9716 22.6233 57.8036 22.782C57.6356 22.9407 57.4396 23.02 57.2156 23.02C56.9916 23.02 56.7956 22.9407 56.6276 22.782ZM59.3856 31V24.28H60.7856V25.26C60.8883 25.064 61.0376 24.8773 61.2336 24.7C61.663 24.3267 62.167 24.14 62.7456 24.14C63.3616 24.14 63.8936 24.3267 64.3416 24.7C64.547 24.8773 64.715 25.064 64.8456 25.26C64.9576 25.0733 65.1303 24.8867 65.3636 24.7C65.8676 24.3267 66.465 24.14 67.1556 24.14C67.837 24.14 68.4156 24.406 68.8916 24.938C69.3676 25.47 69.6056 26.1607 69.6056 27.01V31H68.2056V27.01C68.2056 26.5247 68.075 26.1467 67.8136 25.876C67.5523 25.6053 67.2163 25.47 66.8056 25.47C66.339 25.47 65.9516 25.638 65.6436 25.974C65.345 26.3007 65.1956 26.7393 65.1956 27.29V31H63.7956V27.01C63.7956 26.5247 63.665 26.1467 63.4036 25.876C63.1423 25.6053 62.8063 25.47 62.3956 25.47C61.929 25.47 61.5416 25.638 61.2336 25.974C60.935 26.3007 60.7856 26.7393 60.7856 27.29V31H59.3856ZM76.1173 28.9L76.9573 29.88C76.7799 30.1133 76.5466 30.3233 76.2573 30.51C75.6226 30.93 74.8993 31.14 74.0873 31.14C73.1073 31.14 72.2766 30.804 71.5953 30.132C70.9233 29.4507 70.5873 28.62 70.5873 27.64C70.5873 26.66 70.9186 25.834 71.5813 25.162C72.2533 24.4807 73.0653 24.14 74.0173 24.14C74.9693 24.14 75.7533 24.4527 76.3693 25.078C76.9946 25.694 77.3073 26.478 77.3073 27.43C77.3073 27.514 77.2933 27.682 77.2653 27.934L77.2373 28.13H72.0573C72.1413 28.606 72.3746 29.0073 72.7573 29.334C73.1399 29.6513 73.6066 29.81 74.1573 29.81C74.6613 29.81 75.1373 29.6607 75.5853 29.362C75.7906 29.2313 75.9679 29.0773 76.1173 28.9ZM72.0573 26.94H75.8373C75.7253 26.464 75.5153 26.0907 75.2073 25.82C74.8993 25.54 74.5026 25.4 74.0173 25.4C73.0279 25.4 72.3746 25.9133 72.0573 26.94ZM80.6607 31V24.28H82.0607V25.19C82.2474 24.966 82.42 24.7933 82.5787 24.672C83.0267 24.3173 83.5307 24.14 84.0907 24.14H84.4407V25.61L84.2587 25.582C84.0347 25.554 83.9087 25.54 83.8807 25.54C83.386 25.54 82.9567 25.736 82.5927 26.128C82.238 26.5107 82.0607 26.9913 82.0607 27.57V31H80.6607ZM90.1189 28.9L90.9589 29.88C90.7816 30.1133 90.5482 30.3233 90.2589 30.51C89.6242 30.93 88.9009 31.14 88.0889 31.14C87.1089 31.14 86.2782 30.804 85.5969 30.132C84.9249 29.4507 84.5889 28.62 84.5889 27.64C84.5889 26.66 84.9202 25.834 85.5829 25.162C86.2549 24.4807 87.0669 24.14 88.0189 24.14C88.9709 24.14 89.7549 24.4527 90.3709 25.078C90.9962 25.694 91.3089 26.478 91.3089 27.43C91.3089 27.514 91.2949 27.682 91.2669 27.934L91.2389 28.13H86.0589C86.1429 28.606 86.3762 29.0073 86.7589 29.334C87.1416 29.6513 87.6082 29.81 88.1589 29.81C88.6629 29.81 89.1389 29.6607 89.5869 29.362C89.7922 29.2313 89.9696 29.0773 90.1189 28.9ZM86.0589 26.94H89.8389C89.7269 26.464 89.5169 26.0907 89.2089 25.82C88.9009 25.54 88.5042 25.4 88.0189 25.4C87.0296 25.4 86.3762 25.9133 86.0589 26.94ZM92.9829 28.9V25.61H91.7229V24.28H92.4929C92.7169 24.28 92.8756 24.224 92.9689 24.112C93.0716 23.9907 93.1229 23.79 93.1229 23.51V22.04H94.3829V24.28H95.9229V25.61H94.3829V28.76C94.3829 29.46 94.7096 29.81 95.3629 29.81C95.5496 29.81 95.7316 29.7773 95.9089 29.712L96.1329 29.6V30.93L95.8389 31.042C95.6242 31.1073 95.3722 31.14 95.0829 31.14C94.4109 31.14 93.8929 30.9487 93.5289 30.566C93.1649 30.1833 92.9829 29.628 92.9829 28.9ZM97.1096 28.2V24.28H98.5096V28.2C98.5096 28.6947 98.6496 29.0867 98.9296 29.376C99.2189 29.6653 99.5923 29.81 100.05 29.81C100.582 29.81 101.016 29.6373 101.352 29.292C101.697 28.9373 101.87 28.48 101.87 27.92V24.28H103.27V31H101.87V30.02C101.711 30.2347 101.534 30.4213 101.338 30.58C100.871 30.9533 100.348 31.14 99.7696 31.14C98.9856 31.14 98.3463 30.8787 97.8516 30.356C97.3569 29.824 97.1096 29.1053 97.1096 28.2ZM104.671 31V24.28L106.071 24.28V25.19C106.257 24.966 106.43 24.7933 106.589 24.672C107.037 24.3173 107.541 24.14 108.101 24.14H108.451V25.61L108.269 25.582C108.045 25.554 107.919 25.54 107.891 25.54C107.396 25.54 106.967 25.736 106.603 26.128C106.248 26.5107 106.071 26.9913 106.071 27.57V31H104.671ZM109.156 31V24.28H110.556V25.26C110.696 25.0547 110.868 24.868 111.074 24.7C111.54 24.3267 112.068 24.14 112.656 24.14C113.44 24.14 114.079 24.406 114.574 24.938C115.068 25.4607 115.316 26.1747 115.316 27.08V31H113.916V27.08C113.916 26.5853 113.771 26.1933 113.482 25.904C113.202 25.6147 112.833 25.47 112.376 25.47C111.844 25.47 111.405 25.6473 111.06 26.002C110.724 26.3473 110.556 26.8 110.556 27.36V31H109.156ZM116.087 29.88L116.997 28.97C117.146 29.1567 117.305 29.3107 117.473 29.432C117.902 29.7307 118.327 29.88 118.747 29.88C119.12 29.88 119.409 29.8007 119.615 29.642C119.829 29.474 119.937 29.2733 119.937 29.04C119.937 28.8347 119.811 28.6667 119.559 28.536C119.316 28.4053 119.022 28.2933 118.677 28.2C118.331 28.1067 117.981 27.9947 117.627 27.864C117.281 27.724 116.983 27.5047 116.731 27.206C116.488 26.9073 116.367 26.5387 116.367 26.1C116.367 25.5587 116.591 25.0967 117.039 24.714C117.487 24.3313 118.079 24.14 118.817 24.14C119.47 24.14 120.067 24.294 120.609 24.602C120.842 24.7233 121.038 24.8727 121.197 25.05L120.287 25.96C120.156 25.8387 120.025 25.7453 119.895 25.68C119.568 25.4933 119.209 25.4 118.817 25.4C118.481 25.4 118.219 25.47 118.033 25.61C117.855 25.75 117.767 25.9133 117.767 26.1C117.767 26.3053 117.888 26.4733 118.131 26.604C118.383 26.7347 118.681 26.8513 119.027 26.954C119.372 27.0473 119.717 27.164 120.063 27.304C120.417 27.4347 120.716 27.6493 120.959 27.948C121.211 28.2373 121.337 28.6013 121.337 29.04C121.337 29.628 121.099 30.1273 120.623 30.538C120.156 30.9393 119.531 31.14 118.747 31.14C118.009 31.14 117.347 30.93 116.759 30.51C116.488 30.3327 116.264 30.1227 116.087 29.88Z" fill="#787D88"/>
<path d="M33.841 55.1L35.841 53.1C36.1077 53.4067 36.3944 53.66 36.701 53.86C37.4344 54.3533 38.2477 54.6 39.141 54.6C39.901 54.6 40.4744 54.4533 40.861 54.16C41.2477 53.8667 41.441 53.48 41.441 53C41.441 52.5733 41.201 52.22 40.721 51.94C40.241 51.6467 39.6544 51.3933 38.961 51.18C38.281 50.9667 37.5944 50.7133 36.901 50.42C36.221 50.1267 35.641 49.68 35.161 49.08C34.681 48.4667 34.441 47.7067 34.441 46.8C34.441 45.8133 34.761 44.98 35.401 44.3C36.0544 43.62 36.9677 43.12 38.141 42.8V41H40.741V42.8C41.6344 42.9333 42.481 43.2733 43.281 43.82C43.641 44.06 43.961 44.32 44.241 44.6L42.241 46.6C41.9877 46.3467 41.7544 46.1467 41.541 46C40.9277 45.6 40.2944 45.4 39.641 45.4C38.241 45.4 37.541 45.8667 37.541 46.8C37.541 47.2267 37.781 47.5867 38.261 47.88C38.741 48.16 39.321 48.4067 40.001 48.62C40.6944 48.8333 41.381 49.0867 42.061 49.38C42.7544 49.6733 43.341 50.1267 43.821 50.74C44.301 51.34 44.541 52.0933 44.541 53C44.541 54.0267 44.1877 54.9267 43.481 55.7C42.7744 56.46 41.861 56.96 40.741 57.2V59H38.141V57.2C36.901 57.0133 35.821 56.6133 34.901 56C34.461 55.7067 34.1077 55.4067 33.841 55.1ZM51.9602 51.52C51.5869 51.1733 51.0802 51 50.4402 51C49.8002 51 49.2869 51.1733 48.9002 51.52C48.5269 51.8533 48.3402 52.28 48.3402 52.8C48.3402 53.32 48.5269 53.7533 48.9002 54.1C49.2869 54.4333 49.8002 54.6 50.4402 54.6C51.0802 54.6 51.5869 54.4333 51.9602 54.1C52.3469 53.7533 52.5402 53.32 52.5402 52.8C52.5402 52.28 52.3469 51.8533 51.9602 51.52ZM51.6602 45.84C51.3402 45.5467 50.9336 45.4 50.4402 45.4C49.9469 45.4 49.5402 45.5467 49.2202 45.84C48.9002 46.1333 48.7402 46.4867 48.7402 46.9C48.7402 47.3133 48.9002 47.6667 49.2202 47.96C49.5402 48.2533 49.9469 48.4 50.4402 48.4C50.9336 48.4 51.3402 48.2533 51.6602 47.96C51.9802 47.6667 52.1402 47.3133 52.1402 46.9C52.1402 46.4867 51.9802 46.1333 51.6602 45.84ZM54.2002 56.04C53.2402 56.88 51.9869 57.3 50.4402 57.3C48.8936 57.3 47.6402 56.88 46.6802 56.04C45.7202 55.2 45.2402 54.1867 45.2402 53C45.2402 51.9467 45.6202 51.0533 46.3802 50.32C46.6736 50.0267 47.0602 49.7533 47.5402 49.5C47.2069 49.3267 46.9069 49.0933 46.6402 48.8C46.0402 48.1733 45.7402 47.44 45.7402 46.6C45.7402 45.56 46.1802 44.6533 47.0602 43.88C47.9536 43.0933 49.0802 42.7 50.4402 42.7C51.8002 42.7 52.9202 43.0933 53.8002 43.88C54.6936 44.6533 55.1402 45.56 55.1402 46.6C55.1402 47.44 54.8402 48.1733 54.2402 48.8C53.9736 49.0933 53.6736 49.3267 53.3402 49.5C53.7936 49.74 54.1736 50.0133 54.4802 50.32C55.2536 51.0667 55.6402 51.96 55.6402 53C55.6402 54.1867 55.1602 55.2 54.2002 56.04ZM58.9473 57L61.9473 52.4L61.7473 52.46C61.5606 52.4867 61.3939 52.5 61.2473 52.5C59.9806 52.5 58.8806 52.02 57.9473 51.06C57.0139 50.0867 56.5473 48.9333 56.5473 47.6C56.5473 46.2267 57.0473 45.0667 58.0473 44.12C59.0473 43.1733 60.3139 42.7 61.8473 42.7C63.3806 42.7 64.6473 43.1733 65.6473 44.12C66.6473 45.0667 67.1473 46.2267 67.1473 47.6C67.1473 48.3867 66.9473 49.1933 66.5473 50.02C66.3739 50.3533 66.1739 50.68 65.9473 51L62.0473 57H58.9473ZM60.2473 46.02C59.8473 46.42 59.6473 46.9467 59.6473 47.6C59.6473 48.2533 59.8473 48.7867 60.2473 49.2C60.6606 49.6 61.1939 49.8 61.8473 49.8C62.5006 49.8 63.0273 49.6 63.4273 49.2C63.8406 48.7867 64.0473 48.2533 64.0473 47.6C64.0473 46.9467 63.8406 46.42 63.4273 46.02C63.0273 45.6067 62.5006 45.4 61.8473 45.4C61.1939 45.4 60.6606 45.6067 60.2473 46.02ZM66.8543 58.7L68.9543 54L71.2543 55.3L68.4543 59.6L66.8543 58.7ZM73.3582 57V46.8H70.9582V44.9C71.8915 44.78 72.6515 44.4267 73.2382 43.84C73.4782 43.6 73.6849 43.32 73.8582 43H76.3582V57H73.3582ZM82.2312 53.32C82.8312 54.1067 83.5378 54.5 84.3512 54.5C85.1645 54.5 85.8645 54.1067 86.4512 53.32C87.0512 52.52 87.3512 51.4133 87.3512 50C87.3512 48.5867 87.0512 47.4867 86.4512 46.7C85.8645 45.9 85.1645 45.5 84.3512 45.5C83.5378 45.5 82.8312 45.9 82.2312 46.7C81.6445 47.4867 81.3512 48.5867 81.3512 50C81.3512 51.4133 81.6445 52.52 82.2312 53.32ZM88.5912 55.3C87.4312 56.6333 86.0178 57.3 84.3512 57.3C82.6845 57.3 81.2645 56.6333 80.0912 55.3C78.9312 53.9533 78.3512 52.1867 78.3512 50C78.3512 47.8133 78.9312 46.0533 80.0912 44.72C81.2645 43.3733 82.6845 42.7 84.3512 42.7C86.0178 42.7 87.4312 43.3733 88.5912 44.72C89.7645 46.0533 90.3512 47.8133 90.3512 50C90.3512 52.1867 89.7645 53.9533 88.5912 55.3ZM95.4351 53.32C96.0351 54.1067 96.7417 54.5 97.5551 54.5C98.3684 54.5 99.0684 54.1067 99.6551 53.32C100.255 52.52 100.555 51.4133 100.555 50C100.555 48.5867 100.255 47.4867 99.6551 46.7C99.0684 45.9 98.3684 45.5 97.5551 45.5C96.7417 45.5 96.0351 45.9 95.4351 46.7C94.8484 47.4867 94.5551 48.5867 94.5551 50C94.5551 51.4133 94.8484 52.52 95.4351 53.32ZM101.795 55.3C100.635 56.6333 99.2217 57.3 97.5551 57.3C95.8884 57.3 94.4684 56.6333 93.2951 55.3C92.1351 53.9533 91.5551 52.1867 91.5551 50C91.5551 47.8133 92.1351 46.0533 93.2951 44.72C94.4684 43.3733 95.8884 42.7 97.5551 42.7C99.2217 42.7 100.635 43.3733 101.795 44.72C102.968 46.0533 103.555 47.8133 103.555 50C103.555 52.1867 102.968 53.9533 101.795 55.3Z" fill="#141E22"/>
<rect x="113.5" y="41.5" width="43" height="17" rx="8.5" fill="#EDFFF0"/>
<rect x="113.5" y="41.5" width="43" height="17" rx="8.5" stroke="#98FB96"/>
<path d="M122.148 53.05L122.898 52.3C123.004 52.44 123.144 52.5733 123.318 52.7C123.691 52.9667 124.118 53.1 124.598 53.1C125.038 53.1 125.381 52.9933 125.628 52.78C125.874 52.5667 125.998 52.29 125.998 51.95C125.998 51.6367 125.874 51.3767 125.628 51.17C125.381 50.9567 125.038 50.85 124.598 50.85H123.848V49.8H124.598C124.971 49.8 125.254 49.7133 125.448 49.54C125.648 49.3667 125.748 49.1367 125.748 48.85C125.748 48.5633 125.648 48.3333 125.448 48.16C125.254 47.9867 124.971 47.9 124.598 47.9C124.231 47.9 123.861 48.0167 123.488 48.25C123.321 48.37 123.191 48.4867 123.098 48.6L122.348 47.85C122.534 47.6633 122.728 47.5067 122.928 47.38C123.448 47.06 124.004 46.9 124.598 46.9C125.278 46.9 125.821 47.08 126.228 47.44C126.641 47.7933 126.848 48.23 126.848 48.75C126.848 49.2433 126.671 49.6467 126.318 49.96C126.184 50.0867 126.011 50.2 125.798 50.3C126.044 50.3933 126.261 50.5133 126.448 50.66C126.881 51.0267 127.098 51.4733 127.098 52C127.098 52.6 126.868 53.1 126.408 53.5C125.954 53.9 125.351 54.1 124.598 54.1C123.898 54.1 123.284 53.9267 122.758 53.58C122.531 53.44 122.328 53.2633 122.148 53.05ZM131.932 52.43C132.279 51.9767 132.452 51.3333 132.452 50.5C132.452 49.6667 132.279 49.0267 131.932 48.58C131.585 48.1267 131.159 47.9 130.652 47.9C130.145 47.9 129.719 48.1267 129.372 48.58C129.025 49.0267 128.852 49.6667 128.852 50.5C128.852 51.3333 129.025 51.9767 129.372 52.43C129.719 52.8767 130.145 53.1 130.652 53.1C131.159 53.1 131.585 52.8767 131.932 52.43ZM132.722 53.14C132.169 53.78 131.479 54.1 130.652 54.1C129.825 54.1 129.135 53.78 128.582 53.14C128.029 52.4933 127.752 51.6133 127.752 50.5C127.752 49.3867 128.029 48.51 128.582 47.87C129.135 47.2233 129.825 46.9 130.652 46.9C131.479 46.9 132.169 47.2233 132.722 47.87C133.275 48.51 133.552 49.3867 133.552 50.5C133.552 51.6133 133.275 52.4933 132.722 53.14ZM135.256 53.91C135.13 54.0367 134.98 54.1 134.806 54.1C134.633 54.1 134.48 54.0367 134.346 53.91C134.22 53.7767 134.156 53.6233 134.156 53.45C134.156 53.2767 134.22 53.1267 134.346 53C134.48 52.8667 134.633 52.8 134.806 52.8C134.98 52.8 135.13 52.8667 135.256 53C135.39 53.1267 135.456 53.2767 135.456 53.45C135.456 53.6233 135.39 53.7767 135.256 53.91ZM137.474 51.12C137.227 51.3333 137.104 51.61 137.104 51.95C137.104 52.29 137.227 52.5667 137.474 52.78C137.72 52.9933 138.064 53.1 138.504 53.1C138.944 53.1 139.287 52.9933 139.534 52.78C139.78 52.5667 139.904 52.29 139.904 51.95C139.904 51.61 139.78 51.3333 139.534 51.12C139.287 50.9067 138.944 50.8 138.504 50.8C138.064 50.8 137.72 50.9067 137.474 51.12ZM137.694 48.16C137.5 48.3333 137.404 48.5633 137.404 48.85C137.404 49.1367 137.5 49.3667 137.694 49.54C137.887 49.7133 138.157 49.8 138.504 49.8C138.85 49.8 139.12 49.7133 139.314 49.54C139.507 49.3667 139.604 49.1367 139.604 48.85C139.604 48.5633 139.507 48.3333 139.314 48.16C139.12 47.9867 138.85 47.9 138.504 47.9C138.157 47.9 137.887 47.9867 137.694 48.16ZM136.004 52C136.004 51.4533 136.204 51 136.604 50.64C136.777 50.48 136.977 50.35 137.204 50.25C137.03 50.1567 136.88 50.0433 136.754 49.91C136.454 49.5967 136.304 49.21 136.304 48.75C136.304 48.2367 136.507 47.8 136.914 47.44C137.32 47.08 137.85 46.9 138.504 46.9C139.157 46.9 139.687 47.08 140.094 47.44C140.5 47.8 140.704 48.2367 140.704 48.75C140.704 49.21 140.554 49.5967 140.254 49.91C140.127 50.0433 139.977 50.1567 139.804 50.25C140.03 50.35 140.23 50.48 140.404 50.64C140.804 51 141.004 51.4533 141.004 52C141.004 52.6 140.774 53.1 140.314 53.5C139.86 53.9 139.257 54.1 138.504 54.1C137.75 54.1 137.144 53.9 136.684 53.5C136.23 53.1 136.004 52.6 136.004 52ZM141.96 49.55C141.653 49.2433 141.5 48.8767 141.5 48.45C141.5 48.0233 141.653 47.66 141.96 47.36C142.273 47.0533 142.653 46.9 143.1 46.9C143.546 46.9 143.923 47.0533 144.23 47.36C144.543 47.66 144.7 48.0233 144.7 48.45C144.7 48.8767 144.543 49.2433 144.23 49.55C143.923 49.85 143.546 50 143.1 50C142.653 50 142.273 49.85 141.96 49.55ZM142.53 47.88C142.376 48.0333 142.3 48.2233 142.3 48.45C142.3 48.6767 142.376 48.8667 142.53 49.02C142.683 49.1733 142.873 49.25 143.1 49.25C143.326 49.25 143.516 49.1733 143.67 49.02C143.823 48.8667 143.9 48.6767 143.9 48.45C143.9 48.2233 143.823 48.0333 143.67 47.88C143.516 47.7267 143.326 47.65 143.1 47.65C142.873 47.65 142.683 47.7267 142.53 47.88ZM142.4 54L146.8 47H147.7L143.3 54H142.4ZM145.86 53.65C145.553 53.3433 145.4 52.9767 145.4 52.55C145.4 52.1233 145.553 51.76 145.86 51.46C146.173 51.1533 146.553 51 147 51C147.446 51 147.823 51.1533 148.13 51.46C148.443 51.76 148.6 52.1233 148.6 52.55C148.6 52.9767 148.443 53.3433 148.13 53.65C147.823 53.95 147.446 54.1 147 54.1C146.553 54.1 146.173 53.95 145.86 53.65ZM146.43 53.12C146.583 53.2733 146.773 53.35 147 53.35C147.226 53.35 147.416 53.2733 147.57 53.12C147.723 52.9667 147.8 52.7767 147.8 52.55C147.8 52.3233 147.723 52.1333 147.57 51.98C147.416 51.8267 147.226 51.75 147 51.75C146.773 51.75 146.583 51.8267 146.43 51.98C146.276 52.1333 146.2 52.3233 146.2 52.55C146.2 52.7767 146.276 52.9667 146.43 53.12Z" fill="#2B32F9"/>
</g>
<defs>
<filter id="filter0_d_363_6298" x="0" y="0" width="313" height="128" filterUnits="userSpaceOnUse" color-interpolation-filters="sRGB">
<feFlood flood-opacity="0" result="BackgroundImageFix"/>
<feColorMatrix in="SourceAlpha" type="matrix" values="0 0 0 0 0 0 0 0 0 0 0 0 0 0 0 0 0 0 127 0" result="hardAlpha"/>
<feOffset dy="12"/>
<feGaussianBlur stdDeviation="10.5"/>
<feComposite in2="hardAlpha" operator="out"/>
<feColorMatrix type="matrix" values="0 0 0 0 0 0 0 0 0 0 0 0 0 0 0 0 0 0 0.15 0"/>
<feBlend mode="normal" in2="BackgroundImageFix" result="effect1_dropShadow_363_6298"/>
<feBlend mode="normal" in="SourceGraphic" in2="effect1_dropShadow_363_6298" result="shape"/>
</filter>
<clipPath id="clip0_363_6298">
<rect width="19" height="18" fill="white" transform="translate(215 21)"/>
</clipPath>
</defs>
</svg>
