<svg width="20" height="20" viewBox="0 0 20 20" fill="none" xmlns="http://www.w3.org/2000/svg">
<path d="M7.49935 17.5V11.3333C7.49935 10.8666 7.49935 10.6333 7.59018 10.455C7.67007 10.2982 7.79756 10.1707 7.95436 10.0908C8.13262 10 8.36598 10 8.83269 10H11.166C11.6327 10 11.8661 10 12.0443 10.0908C12.2011 10.1707 12.3286 10.2982 12.4085 10.455C12.4994 10.6333 12.4994 10.8666 12.4994 11.3333V17.5M1.66602 7.91667L9.19935 2.26667C9.48623 2.0515 9.62968 1.94392 9.78721 1.90245C9.92627 1.86585 10.0724 1.86585 10.2115 1.90245C10.369 1.94392 10.5125 2.05151 10.7994 2.26667L18.3327 7.91667M3.33269 6.66667V14.8333C3.33269 15.7668 3.33269 16.2335 3.51434 16.59C3.67413 16.9036 3.9291 17.1586 4.2427 17.3183C4.59922 17.5 5.06593 17.5 5.99935 17.5H13.9994C14.9328 17.5 15.3995 17.5 15.756 17.3183C16.0696 17.1586 16.3246 16.9036 16.4844 16.59C16.666 16.2335 16.666 15.7668 16.666 14.8333V6.66667L11.5994 2.86667C11.0256 2.43634 10.7387 2.22118 10.4236 2.13824C10.1455 2.06503 9.85319 2.06503 9.57507 2.13824C9.26 2.22118 8.97312 2.43634 8.39935 2.86667L3.33269 6.66667Z" stroke="#0000FF" stroke-width="1.66667" stroke-linecap="round" stroke-linejoin="round"/>
</svg>
