<svg width="21" height="20" viewBox="0 0 21 20" fill="none" xmlns="http://www.w3.org/2000/svg">
<path d="M17.834 17.5H4.16732C3.70061 17.5 3.46725 17.5 3.28899 17.4092C3.13219 17.3293 3.00471 17.2018 2.92481 17.045C2.83398 16.8667 2.83398 16.6334 2.83398 16.1667V2.5M17.834 5.83333L13.3054 10.3619C13.1404 10.5269 13.0579 10.6094 12.9627 10.6404C12.8791 10.6675 12.7889 10.6675 12.7052 10.6404C12.6101 10.6094 12.5276 10.5269 12.3626 10.3619L10.8054 8.80474C10.6404 8.63973 10.5579 8.55723 10.4627 8.52632C10.3791 8.49912 10.2889 8.49912 10.2052 8.52632C10.1101 8.55723 10.0276 8.63973 9.86258 8.80474L6.16732 12.5M17.834 5.83333H14.5007M17.834 5.83333V9.16667" stroke="#98FB96" stroke-width="1.66667" stroke-linecap="round" stroke-linejoin="round"/>
</svg>
