<svg width="21" height="20" viewBox="0 0 21 20" fill="none" xmlns="http://www.w3.org/2000/svg">
<path d="M8.16537 7.49984H8.1737M13.1654 12.4998H13.1737M13.9987 6.6665L7.33203 13.3332M15.583 4.16526C15.7546 4.58028 16.084 4.91017 16.4987 5.0824L17.9531 5.68482C18.3681 5.85674 18.6978 6.1865 18.8698 6.60155C19.0417 7.01661 19.0417 7.48296 18.8698 7.89801L18.2678 9.35134C18.0958 9.76658 18.0956 10.2334 18.2683 10.6484L18.8693 12.1013C18.9545 12.3069 18.9984 12.5273 18.9984 12.7498C18.9984 12.9723 18.9546 13.1927 18.8695 13.3983C18.7843 13.6039 18.6595 13.7907 18.5021 13.948C18.3447 14.1054 18.1579 14.2301 17.9523 14.3152L16.499 14.9172C16.084 15.0888 15.7541 15.4182 15.5819 15.833L14.9795 17.2874C14.8076 17.7024 14.4778 18.0322 14.0628 18.2041C13.6478 18.376 13.1814 18.376 12.7664 18.2041L11.3131 17.6021C10.8981 17.4306 10.4319 17.431 10.0171 17.6031L8.56278 18.2046C8.14797 18.3762 7.68204 18.376 7.26734 18.2042C6.85264 18.0324 6.52308 17.7031 6.35104 17.2885L5.74846 15.8337C5.57687 15.4186 5.24749 15.0888 4.83274 14.9165L3.37842 14.3141C2.96356 14.1423 2.63391 13.8127 2.46193 13.3979C2.28995 12.9831 2.28972 12.5169 2.46128 12.102L3.06325 10.6486C3.23474 10.2336 3.23439 9.76738 3.06228 9.35257L2.46117 7.89716C2.37595 7.69159 2.33207 7.47124 2.33203 7.2487C2.332 7.02616 2.37581 6.8058 2.46097 6.6002C2.54613 6.3946 2.67096 6.2078 2.82834 6.05046C2.98572 5.89313 3.17255 5.76835 3.37817 5.68326L4.83145 5.08127C5.24609 4.90981 5.57577 4.58084 5.74812 4.16655L6.35052 2.71218C6.52243 2.29712 6.85218 1.96737 7.26722 1.79544C7.68226 1.62352 8.14859 1.62352 8.56363 1.79544L10.0169 2.39743C10.432 2.56893 10.8981 2.56858 11.3129 2.39646L12.7678 1.79638C13.1828 1.62455 13.6491 1.62459 14.064 1.79648C14.479 1.96836 14.8087 2.29803 14.9806 2.71297L15.5832 4.16778L15.583 4.16526ZM8.58203 7.49984C8.58203 7.72996 8.39548 7.9165 8.16537 7.9165C7.93525 7.9165 7.7487 7.72996 7.7487 7.49984C7.7487 7.26972 7.93525 7.08317 8.16537 7.08317C8.39548 7.08317 8.58203 7.26972 8.58203 7.49984ZM13.582 12.4998C13.582 12.73 13.3955 12.9165 13.1654 12.9165C12.9352 12.9165 12.7487 12.73 12.7487 12.4998C12.7487 12.2697 12.9352 12.0832 13.1654 12.0832C13.3955 12.0832 13.582 12.2697 13.582 12.4998Z" stroke="#98FB96" stroke-width="1.66667" stroke-linecap="round" stroke-linejoin="round"/>
</svg>
