<svg width="18" height="18" viewBox="0 0 18 18" fill="none" xmlns="http://www.w3.org/2000/svg">
<path d="M12.75 8.25V6C12.75 3.92893 11.0711 2.25 9 2.25C6.92893 2.25 5.25 3.92893 5.25 6V8.25M5.85 15.75H12.15C13.4101 15.75 14.0402 15.75 14.5215 15.5048C14.9448 15.289 15.289 14.9448 15.5048 14.5215C15.75 14.0402 15.75 13.4101 15.75 12.15V11.85C15.75 10.5899 15.75 9.95982 15.5048 9.47852C15.289 9.05516 14.9448 8.71095 14.5215 8.49524C14.0402 8.25 13.4101 8.25 12.15 8.25H5.85C4.58988 8.25 3.95982 8.25 3.47852 8.49524C3.05516 8.71095 2.71095 9.05516 2.49524 9.47852C2.25 9.95982 2.25 10.5899 2.25 11.85V12.15C2.25 13.4101 2.25 14.0402 2.49524 14.5215C2.71095 14.9448 3.05516 15.289 3.47852 15.5048C3.95982 15.75 4.58988 15.75 5.85 15.75Z" stroke="#7BE579" stroke-linecap="round" stroke-linejoin="round"/>
</svg>
