<svg width="20" height="20" viewBox="0 0 20 20" fill="none" xmlns="http://www.w3.org/2000/svg">
<path d="M9.4185 18.0125C9.603 18.1202 9.69524 18.174 9.82543 18.2019C9.92646 18.2236 10.0739 18.2236 10.1749 18.2019C10.3051 18.174 10.3973 18.1202 10.5818 18.0125C12.2052 17.0655 16.6668 14.0905 16.6668 10.0001V6.83347C16.6668 5.93856 16.6668 5.4911 16.5289 5.17347C16.3887 4.85064 16.249 4.6789 15.9615 4.47589C15.6786 4.27616 15.124 4.16082 14.0149 3.93015C12.7925 3.67592 11.8537 3.21684 10.9955 2.5529C10.5839 2.23453 10.3781 2.07534 10.2171 2.03192C10.0472 1.9861 9.95313 1.9861 9.78322 2.03192C9.62219 2.07534 9.41641 2.23453 9.00485 2.5529C8.1466 3.21684 7.20783 3.67592 5.98541 3.93015C4.87631 4.16082 4.32176 4.27616 4.03887 4.47589C3.75135 4.6789 3.61165 4.85064 3.47144 5.17347C3.3335 5.4911 3.3335 5.93856 3.3335 6.83347V10.0001C3.3335 14.0905 7.79513 17.0655 9.4185 18.0125Z" stroke="#181D27" stroke-width="1.56" stroke-linecap="round" stroke-linejoin="round"/>
</svg>
