<svg viewBox="0 0 1440 1138" fill="none"
  xmlns="http://www.w3.org/2000/svg">
  <mask id="mask0_1330_20937" style="mask-type:alpha" maskUnits="userSpaceOnUse" x="0" y="-202" width="1440" height="1440">
    <rect width="1440" height="1440" transform="translate(0 -202)" fill="url(#paint0_radial_1330_20937)"/>
  </mask>
  <g mask="url(#mask0_1330_20937)">
    <g clip-path="url(#clip0_1330_20937)">
      <g clip-path="url(#clip1_1330_20937)">
        <line x1="48.5" y1="-202" x2="48.5" y2="1238" stroke="#FEFEFE" stroke-opacity="0.34"/>
        <line x1="144.5" y1="-202" x2="144.5" y2="1238" stroke="#FEFEFE" stroke-opacity="0.34"/>
        <line x1="240.5" y1="-202" x2="240.5" y2="1238" stroke="#FEFEFE" stroke-opacity="0.34"/>
        <line x1="336.5" y1="-202" x2="336.5" y2="1238" stroke="#FEFEFE" stroke-opacity="0.34"/>
        <line x1="432.5" y1="-202" x2="432.5" y2="1238" stroke="#FEFEFE" stroke-opacity="0.34"/>
        <line x1="528.5" y1="-202" x2="528.5" y2="1238" stroke="#FEFEFE" stroke-opacity="0.34"/>
        <line x1="624.5" y1="-202" x2="624.5" y2="1238" stroke="#FEFEFE" stroke-opacity="0.34"/>
        <line x1="720.5" y1="-202" x2="720.5" y2="1238" stroke="#FEFEFE" stroke-opacity="0.34"/>
        <line x1="816.5" y1="-202" x2="816.5" y2="1238" stroke="#FEFEFE" stroke-opacity="0.34"/>
        <line x1="912.5" y1="-202" x2="912.5" y2="1238" stroke="#FEFEFE" stroke-opacity="0.34"/>
        <line x1="1008.5" y1="-202" x2="1008.5" y2="1238" stroke="#FEFEFE" stroke-opacity="0.34"/>
        <line x1="1104.5" y1="-202" x2="1104.5" y2="1238" stroke="#FEFEFE" stroke-opacity="0.34"/>
        <line x1="1200.5" y1="-202" x2="1200.5" y2="1238" stroke="#FEFEFE" stroke-opacity="0.34"/>
        <line x1="1296.5" y1="-202" x2="1296.5" y2="1238" stroke="#FEFEFE" stroke-opacity="0.34"/>
        <line x1="1392.5" y1="-202" x2="1392.5" y2="1238" stroke="#FEFEFE" stroke-opacity="0.34"/>
      </g>
      <g clip-path="url(#clip2_1330_20937)">
        <line x1="-240" y1="85.5" x2="1680" y2="85.5" stroke="#FEFEFE" stroke-opacity="0.34"/>
        <line x1="-240" y1="181.5" x2="1680" y2="181.5" stroke="#FEFEFE" stroke-opacity="0.34"/>
        <line x1="-240" y1="277.5" x2="1680" y2="277.5" stroke="#FEFEFE" stroke-opacity="0.34"/>
        <line x1="-240" y1="373.5" x2="1680" y2="373.5" stroke="#FEFEFE" stroke-opacity="0.34"/>
        <line x1="-240" y1="469.5" x2="1680" y2="469.5" stroke="#FEFEFE" stroke-opacity="0.34"/>
        <g filter="url(#filter0_d_1330_20937)">
          <rect x="-240" y="799" width="244.735" height="219" rx="8" fill="white"/>
        </g>
        <path d="M148.764 578.3C149.418 577.823 149.949 577.197 150.313 576.474C150.678 575.752 150.866 574.953 150.862 574.143C150.862 571.314 148.549 569 145.725 569C144.823 569.002 143.937 569.24 143.156 569.691C142.375 570.142 141.726 570.791 141.273 571.571C138.533 571.657 136.306 573.929 136.306 576.714C136.306 578.429 137.12 579.929 138.404 580.871C137.258 581.431 136.292 582.303 135.619 583.387C134.945 584.471 134.59 585.723 134.594 587H136.306C136.306 584.986 137.505 583.229 139.175 582.371C139.817 582.071 140.501 581.857 141.273 581.857H141.443C144.269 581.857 146.581 584.171 146.581 587H148.293C148.293 584.3 146.752 581.986 144.483 580.871C145.05 580.438 145.53 579.9 145.896 579.286C148.636 579.371 150.862 581.643 150.862 584.429H152.574C152.574 581.729 151.033 579.414 148.764 578.3ZM140.501 580.014C139.089 579.586 138.02 578.3 138.02 576.714C138.02 575.086 139.133 573.757 140.631 573.371C140.888 573.329 141.145 573.286 141.444 573.286C141.787 573.286 142.087 573.329 142.386 573.414C143.842 573.843 144.87 575.129 144.87 576.714C144.87 576.971 144.827 577.186 144.784 577.443C144.441 578.986 143.072 580.143 141.444 580.143C141.102 580.143 140.802 580.1 140.502 580.014H140.501ZM146.538 577.486C146.581 577.229 146.581 576.971 146.581 576.714C146.581 574.486 145.168 572.6 143.155 571.871C143.475 571.504 143.87 571.211 144.314 571.011C144.757 570.811 145.238 570.71 145.725 570.714C146.632 570.717 147.502 571.079 148.143 571.722C148.785 572.364 149.146 573.235 149.149 574.143C149.149 575.771 148.036 577.1 146.538 577.486Z" fill="#2B32F9"/>
        <path d="M165.584 583.64H172.784V587H160.904C160.904 585.928 161.056 584.952 161.36 584.072C161.664 583.192 162.048 582.464 162.512 581.888C162.992 581.296 163.52 580.76 164.096 580.28C164.688 579.8 165.272 579.376 165.848 579.008C166.44 578.624 166.968 578.264 167.432 577.928C167.912 577.576 168.304 577.184 168.608 576.752C168.912 576.32 169.064 575.856 169.064 575.36C169.064 574.736 168.84 574.224 168.392 573.824C167.944 573.408 167.368 573.2 166.664 573.2C165.816 573.2 165.08 573.544 164.456 574.232C164.168 574.552 163.944 574.888 163.784 575.24L160.904 573.8C161.224 573.048 161.64 572.392 162.152 571.832C163.384 570.504 164.968 569.84 166.904 569.84C168.664 569.84 170.08 570.344 171.152 571.352C172.24 572.344 172.784 573.6 172.784 575.12C172.784 576.016 172.6 576.824 172.232 577.544C171.864 578.248 171.384 578.848 170.792 579.344C170.2 579.84 169.592 580.296 168.968 580.712C168.344 581.128 167.704 581.592 167.048 582.104C166.408 582.6 165.92 583.112 165.584 583.64ZM178.429 583.64H185.629V587H173.749C173.749 585.928 173.901 584.952 174.205 584.072C174.509 583.192 174.893 582.464 175.357 581.888C175.837 581.296 176.365 580.76 176.941 580.28C177.533 579.8 178.117 579.376 178.693 579.008C179.285 578.624 179.813 578.264 180.277 577.928C180.757 577.576 181.149 577.184 181.453 576.752C181.757 576.32 181.909 575.856 181.909 575.36C181.909 574.736 181.685 574.224 181.237 573.824C180.789 573.408 180.213 573.2 179.509 573.2C178.661 573.2 177.925 573.544 177.301 574.232C177.013 574.552 176.789 574.888 176.629 575.24L173.749 573.8C174.069 573.048 174.485 572.392 174.997 571.832C176.229 570.504 177.813 569.84 179.749 569.84C181.509 569.84 182.925 570.344 183.997 571.352C185.085 572.344 185.629 573.6 185.629 575.12C185.629 576.016 185.445 576.824 185.077 577.544C184.709 578.248 184.229 578.848 183.637 579.344C183.045 579.84 182.437 580.296 181.813 580.712C181.189 581.128 180.549 581.592 179.893 582.104C179.253 582.6 178.765 583.112 178.429 583.64ZM188.274 577.4L192.954 570.2H196.674L193.074 575.72L193.314 575.672C193.65 575.624 193.85 575.6 193.914 575.6C195.434 575.6 196.754 576.184 197.874 577.352C198.994 578.504 199.554 579.88 199.554 581.48C199.554 583.128 198.954 584.52 197.754 585.656C196.554 586.792 195.034 587.36 193.194 587.36C191.354 587.36 189.834 586.792 188.634 585.656C187.434 584.52 186.834 583.128 186.834 581.48C186.834 580.536 187.074 579.568 187.554 578.576C187.762 578.176 188.002 577.784 188.274 577.4ZM191.274 583.4C191.77 583.88 192.41 584.12 193.194 584.12C193.978 584.12 194.61 583.88 195.09 583.4C195.586 582.904 195.834 582.264 195.834 581.48C195.834 580.696 195.586 580.064 195.09 579.584C194.61 579.088 193.978 578.84 193.194 578.84C192.41 578.84 191.77 579.088 191.274 579.584C190.794 580.064 190.554 580.696 190.554 581.48C190.554 582.264 190.794 582.904 191.274 583.4Z" fill="#2B32F9"/>
        <path d="M155.256 599V593.24H156.456V599H155.256ZM155.352 591.956C155.208 591.82 155.136 591.648 155.136 591.44C155.136 591.232 155.208 591.06 155.352 590.924C155.496 590.788 155.664 590.72 155.856 590.72C156.048 590.72 156.216 590.788 156.36 590.924C156.504 591.06 156.576 591.232 156.576 591.44C156.576 591.648 156.504 591.82 156.36 591.956C156.216 592.092 156.048 592.16 155.856 592.16C155.664 592.16 155.496 592.092 155.352 591.956ZM157.716 599V593.24H158.916V594.08C159.036 593.904 159.184 593.744 159.36 593.6C159.76 593.28 160.212 593.12 160.716 593.12C161.388 593.12 161.936 593.348 162.36 593.804C162.784 594.252 162.996 594.864 162.996 595.64V599H161.796V595.64C161.796 595.216 161.672 594.88 161.424 594.632C161.184 594.384 160.868 594.26 160.476 594.26C160.02 594.26 159.644 594.412 159.348 594.716C159.06 595.012 158.916 595.4 158.916 595.88V599H157.716ZM165.639 599L163.359 593.24H164.679L166.299 597.5L167.919 593.24H169.239L166.959 599H165.639ZM174.096 597.2L174.816 598.04C174.664 598.24 174.464 598.42 174.216 598.58C173.672 598.94 173.052 599.12 172.356 599.12C171.516 599.12 170.804 598.832 170.22 598.256C169.644 597.672 169.356 596.96 169.356 596.12C169.356 595.28 169.64 594.572 170.208 593.996C170.784 593.412 171.48 593.12 172.296 593.12C173.112 593.12 173.784 593.388 174.312 593.924C174.848 594.452 175.116 595.124 175.116 595.94C175.116 596.012 175.104 596.156 175.08 596.372L175.056 596.54H170.616C170.688 596.948 170.888 597.292 171.216 597.572C171.544 597.844 171.944 597.98 172.416 597.98C172.848 597.98 173.256 597.852 173.64 597.596C173.816 597.484 173.968 597.352 174.096 597.2ZM170.616 595.52H173.856C173.76 595.112 173.58 594.792 173.316 594.56C173.052 594.32 172.712 594.2 172.296 594.2C171.448 594.2 170.888 594.64 170.616 595.52ZM175.411 598.04L176.191 597.26C176.319 597.42 176.455 597.552 176.599 597.656C176.967 597.912 177.331 598.04 177.691 598.04C178.011 598.04 178.259 597.972 178.435 597.836C178.619 597.692 178.711 597.52 178.711 597.32C178.711 597.144 178.603 597 178.387 596.888C178.179 596.776 177.927 596.68 177.631 596.6C177.335 596.52 177.035 596.424 176.731 596.312C176.435 596.192 176.179 596.004 175.963 595.748C175.755 595.492 175.651 595.176 175.651 594.8C175.651 594.336 175.843 593.94 176.227 593.612C176.611 593.284 177.119 593.12 177.751 593.12C178.311 593.12 178.823 593.252 179.287 593.516C179.487 593.62 179.655 593.748 179.791 593.9L179.011 594.68C178.899 594.576 178.787 594.496 178.675 594.44C178.395 594.28 178.087 594.2 177.751 594.2C177.463 594.2 177.239 594.26 177.079 594.38C176.927 594.5 176.851 594.64 176.851 594.8C176.851 594.976 176.955 595.12 177.163 595.232C177.379 595.344 177.635 595.444 177.931 595.532C178.227 595.612 178.523 595.712 178.819 595.832C179.123 595.944 179.379 596.128 179.587 596.384C179.803 596.632 179.911 596.944 179.911 597.32C179.911 597.824 179.707 598.252 179.299 598.604C178.899 598.948 178.363 599.12 177.691 599.12C177.059 599.12 176.491 598.94 175.987 598.58C175.755 598.428 175.563 598.248 175.411 598.04ZM181.286 597.2V594.38H180.206V593.24H180.866C181.058 593.24 181.194 593.192 181.274 593.096C181.362 592.992 181.406 592.82 181.406 592.58V591.32H182.486V593.24H183.806V594.38H182.486V597.08C182.486 597.68 182.766 597.98 183.326 597.98C183.486 597.98 183.642 597.952 183.794 597.896L183.986 597.8V598.94L183.734 599.036C183.55 599.092 183.334 599.12 183.086 599.12C182.51 599.12 182.066 598.956 181.754 598.628C181.442 598.3 181.286 597.824 181.286 597.2ZM185.327 598.256C184.751 597.672 184.463 596.96 184.463 596.12C184.463 595.28 184.751 594.572 185.327 593.996C185.911 593.412 186.623 593.12 187.463 593.12C188.303 593.12 189.011 593.412 189.587 593.996C190.171 594.572 190.463 595.28 190.463 596.12C190.463 596.96 190.171 597.672 189.587 598.256C189.011 598.832 188.303 599.12 187.463 599.12C186.623 599.12 185.911 598.832 185.327 598.256ZM186.179 597.464C186.523 597.808 186.951 597.98 187.463 597.98C187.975 597.98 188.403 597.808 188.747 597.464C189.091 597.112 189.263 596.664 189.263 596.12C189.263 595.576 189.091 595.132 188.747 594.788C188.403 594.436 187.975 594.26 187.463 594.26C186.951 594.26 186.523 594.436 186.179 594.788C185.835 595.132 185.663 595.576 185.663 596.12C185.663 596.664 185.835 597.112 186.179 597.464ZM191.304 599V593.24H192.504V594.02C192.664 593.828 192.812 593.68 192.948 593.576C193.332 593.272 193.764 593.12 194.244 593.12H194.544V594.38L194.388 594.356C194.196 594.332 194.088 594.32 194.064 594.32C193.64 594.32 193.272 594.488 192.96 594.824C192.656 595.152 192.504 595.564 192.504 596.06V599H191.304ZM194.608 598.04L195.388 597.26C195.516 597.42 195.652 597.552 195.796 597.656C196.164 597.912 196.528 598.04 196.888 598.04C197.208 598.04 197.456 597.972 197.632 597.836C197.816 597.692 197.908 597.52 197.908 597.32C197.908 597.144 197.8 597 197.584 596.888C197.376 596.776 197.124 596.68 196.828 596.6C196.532 596.52 196.232 596.424 195.928 596.312C195.632 596.192 195.376 596.004 195.16 595.748C194.952 595.492 194.848 595.176 194.848 594.8C194.848 594.336 195.04 593.94 195.424 593.612C195.808 593.284 196.316 593.12 196.948 593.12C197.508 593.12 198.02 593.252 198.484 593.516C198.684 593.62 198.852 593.748 198.988 593.9L198.208 594.68C198.096 594.576 197.984 594.496 197.872 594.44C197.592 594.28 197.284 594.2 196.948 594.2C196.66 594.2 196.436 594.26 196.276 594.38C196.124 594.5 196.048 594.64 196.048 594.8C196.048 594.976 196.152 595.12 196.36 595.232C196.576 595.344 196.832 595.444 197.128 595.532C197.424 595.612 197.72 595.712 198.016 595.832C198.32 595.944 198.576 596.128 198.784 596.384C199 596.632 199.108 596.944 199.108 597.32C199.108 597.824 198.904 598.252 198.496 598.604C198.096 598.948 197.56 599.12 196.888 599.12C196.256 599.12 195.688 598.94 195.184 598.58C194.952 598.428 194.76 598.248 194.608 598.04Z" fill="#80858F"/>
        <line x1="-240" y1="1113.5" x2="1680" y2="1113.5" stroke="#FEFEFE" stroke-opacity="0.34"/>
      </g>
    </g>
  </g>
  <defs>
    <filter id="filter0_d_1330_20937" x="-242" y="799" width="248.734" height="223" filterUnits="userSpaceOnUse" color-interpolation-filters="sRGB">
      <feFlood flood-opacity="0" result="BackgroundImageFix"/>
      <feColorMatrix in="SourceAlpha" type="matrix" values="0 0 0 0 0 0 0 0 0 0 0 0 0 0 0 0 0 0 127 0" result="hardAlpha"/>
      <feOffset dy="2"/>
      <feGaussianBlur stdDeviation="1"/>
      <feComposite in2="hardAlpha" operator="out"/>
      <feColorMatrix type="matrix" values="0 0 0 0 0 0 0 0 0 0 0 0 0 0 0 0 0 0 0.15 0"/>
      <feBlend mode="normal" in2="BackgroundImageFix" result="effect1_dropShadow_1330_20937"/>
      <feBlend mode="normal" in="SourceGraphic" in2="effect1_dropShadow_1330_20937" result="shape"/>
    </filter>
    <radialGradient id="paint0_radial_1330_20937" cx="0" cy="0" r="1" gradientUnits="userSpaceOnUse" gradientTransform="translate(720 -0.000171661) rotate(90) scale(1440 751.588)">
      <stop/>
      <stop offset="0.953125" stop-opacity="0"/>
    </radialGradient>
    <clipPath id="clip0_1330_20937">
      <rect width="1920" height="1440" fill="white" transform="translate(-240 -202)"/>
    </clipPath>
    <clipPath id="clip1_1330_20937">
      <rect width="1920" height="1440" fill="white" transform="translate(-240 -202)"/>
    </clipPath>
    <clipPath id="clip2_1330_20937">
      <rect width="1920" height="1988" fill="white" transform="translate(-240 -202)"/>
    </clipPath>
  </defs>
</svg>
