<svg viewBox="0 0 1440 900" fill="none"
  xmlns="http://www.w3.org/2000/svg">
  <mask id="mask0_1330_20683" style="mask-type:alpha" maskUnits="userSpaceOnUse" x="0" y="-192" width="1440" height="1440">
    <rect width="1440" height="1440" transform="translate(0 -192)" fill="url(#paint0_radial_1330_20683)"/>
  </mask>
  <g mask="url(#mask0_1330_20683)">
    <g clip-path="url(#clip0_1330_20683)">
      <g clip-path="url(#clip1_1330_20683)">
        <line x1="48.5" y1="-192" x2="48.5" y2="1248" stroke="#FEFEFE" stroke-opacity="0.34"/>
        <line x1="144.5" y1="-192" x2="144.5" y2="1248" stroke="#FEFEFE" stroke-opacity="0.34"/>
        <line x1="240.5" y1="-192" x2="240.5" y2="1248" stroke="#FEFEFE" stroke-opacity="0.34"/>
        <line x1="336.5" y1="-192" x2="336.5" y2="1248" stroke="#FEFEFE" stroke-opacity="0.34"/>
        <line x1="432.5" y1="-192" x2="432.5" y2="1248" stroke="#FEFEFE" stroke-opacity="0.34"/>
        <line x1="528.5" y1="-192" x2="528.5" y2="1248" stroke="#FEFEFE" stroke-opacity="0.34"/>
        <line x1="624.5" y1="-192" x2="624.5" y2="1248" stroke="#FEFEFE" stroke-opacity="0.34"/>
        <line x1="720.5" y1="-192" x2="720.5" y2="1248" stroke="#FEFEFE" stroke-opacity="0.34"/>
        <line x1="816.5" y1="-192" x2="816.5" y2="1248" stroke="#FEFEFE" stroke-opacity="0.34"/>
        <line x1="912.5" y1="-192" x2="912.5" y2="1248" stroke="#FEFEFE" stroke-opacity="0.34"/>
        <line x1="1008.5" y1="-192" x2="1008.5" y2="1248" stroke="#FEFEFE" stroke-opacity="0.34"/>
        <line x1="1104.5" y1="-192" x2="1104.5" y2="1248" stroke="#FEFEFE" stroke-opacity="0.34"/>
        <line x1="1200.5" y1="-192" x2="1200.5" y2="1248" stroke="#FEFEFE" stroke-opacity="0.34"/>
        <line x1="1296.5" y1="-192" x2="1296.5" y2="1248" stroke="#FEFEFE" stroke-opacity="0.34"/>
        <line x1="1392.5" y1="-192" x2="1392.5" y2="1248" stroke="#FEFEFE" stroke-opacity="0.34"/>
      </g>
      <g clip-path="url(#clip2_1330_20683)">
        <line x1="-240" y1="95.5" x2="1680" y2="95.5" stroke="#FEFEFE" stroke-opacity="0.34"/>
        <line x1="-240" y1="191.5" x2="1680" y2="191.5" stroke="#FEFEFE" stroke-opacity="0.34"/>
        <line x1="-240" y1="287.5" x2="1680" y2="287.5" stroke="#FEFEFE" stroke-opacity="0.34"/>
        <line x1="-240" y1="383.5" x2="1680" y2="383.5" stroke="#FEFEFE" stroke-opacity="0.34"/>
        <line x1="-240" y1="479.5" x2="1680" y2="479.5" stroke="#FEFEFE" stroke-opacity="0.34"/>
        <g filter="url(#filter0_d_1330_20683)">
          <rect x="-240" y="809" width="244.735" height="219" rx="8" fill="white"/>
        </g>
        <path d="M148.764 588.3C149.418 587.823 149.949 587.197 150.313 586.474C150.678 585.752 150.866 584.953 150.862 584.143C150.862 581.314 148.549 579 145.725 579C144.823 579.002 143.937 579.24 143.156 579.691C142.375 580.142 141.726 580.791 141.273 581.571C138.533 581.657 136.306 583.929 136.306 586.714C136.306 588.429 137.12 589.929 138.404 590.871C137.258 591.431 136.292 592.303 135.619 593.387C134.945 594.471 134.59 595.723 134.594 597H136.306C136.306 594.986 137.505 593.229 139.175 592.371C139.817 592.071 140.501 591.857 141.273 591.857H141.443C144.269 591.857 146.581 594.171 146.581 597H148.293C148.293 594.3 146.752 591.986 144.483 590.871C145.05 590.438 145.53 589.9 145.896 589.286C148.636 589.371 150.862 591.643 150.862 594.429H152.574C152.574 591.729 151.033 589.414 148.764 588.3ZM140.501 590.014C139.089 589.586 138.02 588.3 138.02 586.714C138.02 585.086 139.133 583.757 140.631 583.371C140.888 583.329 141.145 583.286 141.444 583.286C141.787 583.286 142.087 583.329 142.386 583.414C143.842 583.843 144.87 585.129 144.87 586.714C144.87 586.971 144.827 587.186 144.784 587.443C144.441 588.986 143.072 590.143 141.444 590.143C141.102 590.143 140.802 590.1 140.502 590.014H140.501ZM146.538 587.486C146.581 587.229 146.581 586.971 146.581 586.714C146.581 584.486 145.168 582.6 143.155 581.871C143.475 581.504 143.87 581.211 144.314 581.011C144.757 580.811 145.238 580.71 145.725 580.714C146.632 580.717 147.502 581.079 148.143 581.722C148.785 582.364 149.146 583.235 149.149 584.143C149.149 585.771 148.036 587.1 146.538 587.486Z" fill="#2B32F9"/>
        <path d="M165.584 593.64H172.784V597H160.904C160.904 595.928 161.056 594.952 161.36 594.072C161.664 593.192 162.048 592.464 162.512 591.888C162.992 591.296 163.52 590.76 164.096 590.28C164.688 589.8 165.272 589.376 165.848 589.008C166.44 588.624 166.968 588.264 167.432 587.928C167.912 587.576 168.304 587.184 168.608 586.752C168.912 586.32 169.064 585.856 169.064 585.36C169.064 584.736 168.84 584.224 168.392 583.824C167.944 583.408 167.368 583.2 166.664 583.2C165.816 583.2 165.08 583.544 164.456 584.232C164.168 584.552 163.944 584.888 163.784 585.24L160.904 583.8C161.224 583.048 161.64 582.392 162.152 581.832C163.384 580.504 164.968 579.84 166.904 579.84C168.664 579.84 170.08 580.344 171.152 581.352C172.24 582.344 172.784 583.6 172.784 585.12C172.784 586.016 172.6 586.824 172.232 587.544C171.864 588.248 171.384 588.848 170.792 589.344C170.2 589.84 169.592 590.296 168.968 590.712C168.344 591.128 167.704 591.592 167.048 592.104C166.408 592.6 165.92 593.112 165.584 593.64ZM178.429 593.64H185.629V597H173.749C173.749 595.928 173.901 594.952 174.205 594.072C174.509 593.192 174.893 592.464 175.357 591.888C175.837 591.296 176.365 590.76 176.941 590.28C177.533 589.8 178.117 589.376 178.693 589.008C179.285 588.624 179.813 588.264 180.277 587.928C180.757 587.576 181.149 587.184 181.453 586.752C181.757 586.32 181.909 585.856 181.909 585.36C181.909 584.736 181.685 584.224 181.237 583.824C180.789 583.408 180.213 583.2 179.509 583.2C178.661 583.2 177.925 583.544 177.301 584.232C177.013 584.552 176.789 584.888 176.629 585.24L173.749 583.8C174.069 583.048 174.485 582.392 174.997 581.832C176.229 580.504 177.813 579.84 179.749 579.84C181.509 579.84 182.925 580.344 183.997 581.352C185.085 582.344 185.629 583.6 185.629 585.12C185.629 586.016 185.445 586.824 185.077 587.544C184.709 588.248 184.229 588.848 183.637 589.344C183.045 589.84 182.437 590.296 181.813 590.712C181.189 591.128 180.549 591.592 179.893 592.104C179.253 592.6 178.765 593.112 178.429 593.64ZM188.274 587.4L192.954 580.2H196.674L193.074 585.72L193.314 585.672C193.65 585.624 193.85 585.6 193.914 585.6C195.434 585.6 196.754 586.184 197.874 587.352C198.994 588.504 199.554 589.88 199.554 591.48C199.554 593.128 198.954 594.52 197.754 595.656C196.554 596.792 195.034 597.36 193.194 597.36C191.354 597.36 189.834 596.792 188.634 595.656C187.434 594.52 186.834 593.128 186.834 591.48C186.834 590.536 187.074 589.568 187.554 588.576C187.762 588.176 188.002 587.784 188.274 587.4ZM191.274 593.4C191.77 593.88 192.41 594.12 193.194 594.12C193.978 594.12 194.61 593.88 195.09 593.4C195.586 592.904 195.834 592.264 195.834 591.48C195.834 590.696 195.586 590.064 195.09 589.584C194.61 589.088 193.978 588.84 193.194 588.84C192.41 588.84 191.77 589.088 191.274 589.584C190.794 590.064 190.554 590.696 190.554 591.48C190.554 592.264 190.794 592.904 191.274 593.4Z" fill="#2B32F9"/>
        <path d="M155.256 609V603.24H156.456V609H155.256ZM155.352 601.956C155.208 601.82 155.136 601.648 155.136 601.44C155.136 601.232 155.208 601.06 155.352 600.924C155.496 600.788 155.664 600.72 155.856 600.72C156.048 600.72 156.216 600.788 156.36 600.924C156.504 601.06 156.576 601.232 156.576 601.44C156.576 601.648 156.504 601.82 156.36 601.956C156.216 602.092 156.048 602.16 155.856 602.16C155.664 602.16 155.496 602.092 155.352 601.956ZM157.716 609V603.24H158.916V604.08C159.036 603.904 159.184 603.744 159.36 603.6C159.76 603.28 160.212 603.12 160.716 603.12C161.388 603.12 161.936 603.348 162.36 603.804C162.784 604.252 162.996 604.864 162.996 605.64V609H161.796V605.64C161.796 605.216 161.672 604.88 161.424 604.632C161.184 604.384 160.868 604.26 160.476 604.26C160.02 604.26 159.644 604.412 159.348 604.716C159.06 605.012 158.916 605.4 158.916 605.88V609H157.716ZM165.639 609L163.359 603.24H164.679L166.299 607.5L167.919 603.24H169.239L166.959 609H165.639ZM174.096 607.2L174.816 608.04C174.664 608.24 174.464 608.42 174.216 608.58C173.672 608.94 173.052 609.12 172.356 609.12C171.516 609.12 170.804 608.832 170.22 608.256C169.644 607.672 169.356 606.96 169.356 606.12C169.356 605.28 169.64 604.572 170.208 603.996C170.784 603.412 171.48 603.12 172.296 603.12C173.112 603.12 173.784 603.388 174.312 603.924C174.848 604.452 175.116 605.124 175.116 605.94C175.116 606.012 175.104 606.156 175.08 606.372L175.056 606.54H170.616C170.688 606.948 170.888 607.292 171.216 607.572C171.544 607.844 171.944 607.98 172.416 607.98C172.848 607.98 173.256 607.852 173.64 607.596C173.816 607.484 173.968 607.352 174.096 607.2ZM170.616 605.52H173.856C173.76 605.112 173.58 604.792 173.316 604.56C173.052 604.32 172.712 604.2 172.296 604.2C171.448 604.2 170.888 604.64 170.616 605.52ZM175.411 608.04L176.191 607.26C176.319 607.42 176.455 607.552 176.599 607.656C176.967 607.912 177.331 608.04 177.691 608.04C178.011 608.04 178.259 607.972 178.435 607.836C178.619 607.692 178.711 607.52 178.711 607.32C178.711 607.144 178.603 607 178.387 606.888C178.179 606.776 177.927 606.68 177.631 606.6C177.335 606.52 177.035 606.424 176.731 606.312C176.435 606.192 176.179 606.004 175.963 605.748C175.755 605.492 175.651 605.176 175.651 604.8C175.651 604.336 175.843 603.94 176.227 603.612C176.611 603.284 177.119 603.12 177.751 603.12C178.311 603.12 178.823 603.252 179.287 603.516C179.487 603.62 179.655 603.748 179.791 603.9L179.011 604.68C178.899 604.576 178.787 604.496 178.675 604.44C178.395 604.28 178.087 604.2 177.751 604.2C177.463 604.2 177.239 604.26 177.079 604.38C176.927 604.5 176.851 604.64 176.851 604.8C176.851 604.976 176.955 605.12 177.163 605.232C177.379 605.344 177.635 605.444 177.931 605.532C178.227 605.612 178.523 605.712 178.819 605.832C179.123 605.944 179.379 606.128 179.587 606.384C179.803 606.632 179.911 606.944 179.911 607.32C179.911 607.824 179.707 608.252 179.299 608.604C178.899 608.948 178.363 609.12 177.691 609.12C177.059 609.12 176.491 608.94 175.987 608.58C175.755 608.428 175.563 608.248 175.411 608.04ZM181.286 607.2V604.38H180.206V603.24H180.866C181.058 603.24 181.194 603.192 181.274 603.096C181.362 602.992 181.406 602.82 181.406 602.58V601.32H182.486V603.24H183.806V604.38H182.486V607.08C182.486 607.68 182.766 607.98 183.326 607.98C183.486 607.98 183.642 607.952 183.794 607.896L183.986 607.8V608.94L183.734 609.036C183.55 609.092 183.334 609.12 183.086 609.12C182.51 609.12 182.066 608.956 181.754 608.628C181.442 608.3 181.286 607.824 181.286 607.2ZM185.327 608.256C184.751 607.672 184.463 606.96 184.463 606.12C184.463 605.28 184.751 604.572 185.327 603.996C185.911 603.412 186.623 603.12 187.463 603.12C188.303 603.12 189.011 603.412 189.587 603.996C190.171 604.572 190.463 605.28 190.463 606.12C190.463 606.96 190.171 607.672 189.587 608.256C189.011 608.832 188.303 609.12 187.463 609.12C186.623 609.12 185.911 608.832 185.327 608.256ZM186.179 607.464C186.523 607.808 186.951 607.98 187.463 607.98C187.975 607.98 188.403 607.808 188.747 607.464C189.091 607.112 189.263 606.664 189.263 606.12C189.263 605.576 189.091 605.132 188.747 604.788C188.403 604.436 187.975 604.26 187.463 604.26C186.951 604.26 186.523 604.436 186.179 604.788C185.835 605.132 185.663 605.576 185.663 606.12C185.663 606.664 185.835 607.112 186.179 607.464ZM191.304 609V603.24H192.504V604.02C192.664 603.828 192.812 603.68 192.948 603.576C193.332 603.272 193.764 603.12 194.244 603.12H194.544V604.38L194.388 604.356C194.196 604.332 194.088 604.32 194.064 604.32C193.64 604.32 193.272 604.488 192.96 604.824C192.656 605.152 192.504 605.564 192.504 606.06V609H191.304ZM194.608 608.04L195.388 607.26C195.516 607.42 195.652 607.552 195.796 607.656C196.164 607.912 196.528 608.04 196.888 608.04C197.208 608.04 197.456 607.972 197.632 607.836C197.816 607.692 197.908 607.52 197.908 607.32C197.908 607.144 197.8 607 197.584 606.888C197.376 606.776 197.124 606.68 196.828 606.6C196.532 606.52 196.232 606.424 195.928 606.312C195.632 606.192 195.376 606.004 195.16 605.748C194.952 605.492 194.848 605.176 194.848 604.8C194.848 604.336 195.04 603.94 195.424 603.612C195.808 603.284 196.316 603.12 196.948 603.12C197.508 603.12 198.02 603.252 198.484 603.516C198.684 603.62 198.852 603.748 198.988 603.9L198.208 604.68C198.096 604.576 197.984 604.496 197.872 604.44C197.592 604.28 197.284 604.2 196.948 604.2C196.66 604.2 196.436 604.26 196.276 604.38C196.124 604.5 196.048 604.64 196.048 604.8C196.048 604.976 196.152 605.12 196.36 605.232C196.576 605.344 196.832 605.444 197.128 605.532C197.424 605.612 197.72 605.712 198.016 605.832C198.32 605.944 198.576 606.128 198.784 606.384C199 606.632 199.108 606.944 199.108 607.32C199.108 607.824 198.904 608.252 198.496 608.604C198.096 608.948 197.56 609.12 196.888 609.12C196.256 609.12 195.688 608.94 195.184 608.58C194.952 608.428 194.76 608.248 194.608 608.04Z" fill="#80858F"/>
      </g>
    </g>
  </g>
  <defs>
    <filter id="filter0_d_1330_20683" x="-242" y="809" width="248.734" height="223" filterUnits="userSpaceOnUse" color-interpolation-filters="sRGB">
      <feFlood flood-opacity="0" result="BackgroundImageFix"/>
      <feColorMatrix in="SourceAlpha" type="matrix" values="0 0 0 0 0 0 0 0 0 0 0 0 0 0 0 0 0 0 127 0" result="hardAlpha"/>
      <feOffset dy="2"/>
      <feGaussianBlur stdDeviation="1"/>
      <feComposite in2="hardAlpha" operator="out"/>
      <feColorMatrix type="matrix" values="0 0 0 0 0 0 0 0 0 0 0 0 0 0 0 0 0 0 0.15 0"/>
      <feBlend mode="normal" in2="BackgroundImageFix" result="effect1_dropShadow_1330_20683"/>
      <feBlend mode="normal" in="SourceGraphic" in2="effect1_dropShadow_1330_20683" result="shape"/>
    </filter>
    <radialGradient id="paint0_radial_1330_20683" cx="0" cy="0" r="1" gradientUnits="userSpaceOnUse" gradientTransform="translate(720 -0.000171661) rotate(90) scale(1440 751.588)">
      <stop/>
      <stop offset="0.953125" stop-opacity="0"/>
    </radialGradient>
    <clipPath id="clip0_1330_20683">
      <rect width="1920" height="1440" fill="white" transform="translate(-240 -192)"/>
    </clipPath>
    <clipPath id="clip1_1330_20683">
      <rect width="1920" height="1440" fill="white" transform="translate(-240 -192)"/>
    </clipPath>
    <clipPath id="clip2_1330_20683">
      <rect width="1920" height="1988" fill="white" transform="translate(-240 -192)"/>
    </clipPath>
  </defs>
</svg>
