<svg width="1335" height="900" viewBox="0 0 1335 900" fill="none"
  xmlns="http://www.w3.org/2000/svg">
  <rect width="100%" height="100%" fill="#0024D1"/>
  <mask id="mask0_1529_4221" style="mask-type:alpha" maskUnits="userSpaceOnUse" x="-317" y="-140" width="1440" height="1440">
    <rect width="1440" height="1440" transform="translate(-317 -140)" fill="url(#paint0_radial_1529_4221)"/>
  </mask>
  <g mask="url(#mask0_1529_4221)">
    <g clip-path="url(#clip0_1529_4221)">
      <g clip-path="url(#clip1_1529_4221)">
        <line x1="19.5" y1="-140" x2="19.5" y2="1300" stroke="#FEFEFE" stroke-opacity="0.34"/>
        <line x1="115.5" y1="-140" x2="115.5" y2="1300" stroke="#FEFEFE" stroke-opacity="0.34"/>
        <line x1="211.5" y1="-140" x2="211.5" y2="1300" stroke="#FEFEFE" stroke-opacity="0.34"/>
        <line x1="307.5" y1="-140" x2="307.5" y2="1300" stroke="#FEFEFE" stroke-opacity="0.34"/>
        <line x1="403.5" y1="-140" x2="403.5" y2="1300" stroke="#FEFEFE" stroke-opacity="0.34"/>
        <line x1="499.5" y1="-140" x2="499.5" y2="1300" stroke="#FEFEFE" stroke-opacity="0.34"/>
        <line x1="595.5" y1="-140" x2="595.5" y2="1300" stroke="#FEFEFE" stroke-opacity="0.34"/>
        <line x1="691.5" y1="-140" x2="691.5" y2="1300" stroke="#FEFEFE" stroke-opacity="0.34"/>
        <line x1="787.5" y1="-140" x2="787.5" y2="1300" stroke="#FEFEFE" stroke-opacity="0.34"/>
        <line x1="883.5" y1="-140" x2="883.5" y2="1300" stroke="#FEFEFE" stroke-opacity="0.34"/>
        <line x1="979.5" y1="-140" x2="979.5" y2="1300" stroke="#FEFEFE" stroke-opacity="0.34"/>
        <line x1="1075.5" y1="-140" x2="1075.5" y2="1300" stroke="#FEFEFE" stroke-opacity="0.34"/>
      </g>
      <g clip-path="url(#clip2_1529_4221)">
        <line x1="-557" y1="51.5" x2="1363" y2="51.5" stroke="#FEFEFE" stroke-opacity="0.34"/>
        <line x1="-557" y1="147.5" x2="1363" y2="147.5" stroke="#FEFEFE" stroke-opacity="0.34"/>
        <line x1="-557" y1="243.5" x2="1363" y2="243.5" stroke="#FEFEFE" stroke-opacity="0.34"/>
        <line x1="-557" y1="339.5" x2="1363" y2="339.5" stroke="#FEFEFE" stroke-opacity="0.34"/>
        <line x1="-557" y1="435.5" x2="1363" y2="435.5" stroke="#FEFEFE" stroke-opacity="0.34"/>
        <line x1="-557" y1="531.5" x2="1363" y2="531.5" stroke="#FEFEFE" stroke-opacity="0.34"/>
      </g>
    </g>
  </g>
  <defs>
    <radialGradient id="paint0_radial_1529_4221" cx="0" cy="0" r="1" gradientUnits="userSpaceOnUse" gradientTransform="translate(720 -0.000171661) rotate(90) scale(1440 751.588)">
      <stop/>
      <stop offset="0.953125" stop-opacity="0"/>
    </radialGradient>
    <clipPath id="clip0_1529_4221">
      <rect width="1920" height="1440" fill="none" transform="translate(-557 -140)"/>
    </clipPath>
    <clipPath id="clip1_1529_4221">
      <rect width="1920" height="1440" fill="none" transform="translate(-557 -140)"/>
    </clipPath>
    <clipPath id="clip2_1529_4221">
      <rect width="1920" height="1988" fill="none" transform="translate(-557 -140)"/>
    </clipPath>
  </defs>
</svg>
