<svg width="16" height="16" viewBox="0 0 16 16" fill="none" xmlns="http://www.w3.org/2000/svg">
<path d="M3.33337 9.52416C2.09913 10.0686 1.33337 10.8274 1.33337 11.6666C1.33337 13.3234 4.31814 14.6666 8.00004 14.6666C11.6819 14.6666 14.6667 13.3234 14.6667 11.6666C14.6667 10.8274 13.9009 10.0686 12.6667 9.52416M12 5.33325C12 8.04239 9.00004 9.33325 8.00004 11.3333C7.00004 9.33325 4.00004 8.04239 4.00004 5.33325C4.00004 3.12411 5.7909 1.33325 8.00004 1.33325C10.2092 1.33325 12 3.12411 12 5.33325ZM8.66671 5.33325C8.66671 5.70144 8.36823 5.99992 8.00004 5.99992C7.63185 5.99992 7.33337 5.70144 7.33337 5.33325C7.33337 4.96506 7.63185 4.66659 8.00004 4.66659C8.36823 4.66659 8.66671 4.96506 8.66671 5.33325Z" stroke="#414651" stroke-width="2" stroke-linecap="round" stroke-linejoin="round"/>
</svg>
