<svg width="24" height="24" viewBox="0 0 24 24" fill="none" xmlns="http://www.w3.org/2000/svg">
<path d="M4 17.5V14.369M20 17.5V14.369M20 14.369C20 14.369 20 13.3253 20 11.4989C20 11.238 17.6 11.238 17.6 11.238M20 14.369H4M4 14.369C4 14.369 4 11.7598 4 11.4989C4 11.238 6.62857 11.238 6.62857 11.238M6.62857 11.238C6.62857 11.238 6.51429 7.43731 6.62857 6.88933C6.74286 6.34135 12.5446 6.53215 12.5446 6.53215C12.5446 6.53215 17.5194 6.42295 17.6 6.88933C17.7143 7.55046 17.6 11.238 17.6 11.238M6.62857 11.238H12.5446L17.6 11.238" stroke="#252B37" stroke-width="1.5"/>
</svg>
