<svg width="12" height="12" viewBox="0 0 12 12" fill="none" xmlns="http://www.w3.org/2000/svg">
<g clip-path="url(#clip0_2016_9375)">
<path d="M3 3L4 2M4 2L3 1M4 2H3C1.89543 2 1 2.89543 1 4M9 9L8 10M8 10L9 11M8 10H9C10.1046 10 11 9.10457 11 8M6.70858 6.70859C7.09971 6.8954 7.53764 7 8 7C9.65685 7 11 5.65685 11 4C11 2.34315 9.65685 1 8 1C6.34315 1 5 2.34315 5 4C5 4.46236 5.10459 4.90029 5.29141 5.29141M7 8C7 9.65685 5.65685 11 4 11C2.34315 11 1 9.65685 1 8C1 6.34315 2.34315 5 4 5C5.65685 5 7 6.34315 7 8Z" stroke="#F04438" stroke-width="1.5" stroke-linecap="round" stroke-linejoin="round"/>
</g>
<defs>
<clipPath id="clip0_2016_9375">
<rect width="12" height="12" fill="white"/>
</clipPath>
</defs>
</svg>
