<svg width="22" height="21" viewBox="0 0 22 21" fill="none" xmlns="http://www.w3.org/2000/svg">
<path d="M6.24984 9.57096H3.83317C3.36646 9.57096 3.13311 9.57096 2.95485 9.66179C2.79804 9.74169 2.67056 9.86917 2.59067 10.026C2.49984 10.2042 2.49984 10.4376 2.49984 10.9043V17.9043M13.7498 9.57096H16.1665C16.6332 9.57096 16.8666 9.57096 17.0448 9.66179C17.2016 9.74169 17.3291 9.86917 17.409 10.026C17.4998 10.2042 17.4998 10.4376 17.4998 10.9043V17.9043M13.7498 17.9043V5.57096C13.7498 4.63754 13.7498 4.17083 13.5682 3.81431C13.4084 3.50071 13.1534 3.24574 12.8398 3.08595C12.4833 2.9043 12.0166 2.9043 11.0832 2.9043H8.9165C7.98308 2.9043 7.51637 2.9043 7.15985 3.08595C6.84625 3.24574 6.59128 3.50071 6.43149 3.81431C6.24984 4.17083 6.24984 4.63754 6.24984 5.57096V17.9043M18.3332 17.9043H1.6665M9.1665 6.23763H10.8332M9.1665 9.57096H10.8332M9.1665 12.9043H10.8332" stroke="#717680" stroke-width="1.67" stroke-linecap="round" stroke-linejoin="round"/>
</svg>
