<svg width="22" height="21" viewBox="0 0 22 21" fill="none" xmlns="http://www.w3.org/2000/svg">
<path d="M10.0002 5.40397C10.4604 5.40397 10.8335 5.03088 10.8335 4.57064C10.8335 4.1104 10.4604 3.7373 10.0002 3.7373C9.53993 3.7373 9.16683 4.1104 9.16683 4.57064C9.16683 5.03088 9.53993 5.40397 10.0002 5.40397Z" stroke="#0000FF" stroke-width="2.004" stroke-linecap="round" stroke-linejoin="round"/>
<path d="M10.0002 11.2373C10.4604 11.2373 10.8335 10.8642 10.8335 10.404C10.8335 9.94373 10.4604 9.57064 10.0002 9.57064C9.53993 9.57064 9.16683 9.94373 9.16683 10.404C9.16683 10.8642 9.53993 11.2373 10.0002 11.2373Z" stroke="#0000FF" stroke-width="2.004" stroke-linecap="round" stroke-linejoin="round"/>
<path d="M10.0002 17.0706C10.4604 17.0706 10.8335 16.6975 10.8335 16.2373C10.8335 15.7771 10.4604 15.404 10.0002 15.404C9.53993 15.404 9.16683 15.7771 9.16683 16.2373C9.16683 16.6975 9.53993 17.0706 10.0002 17.0706Z" stroke="#0000FF" stroke-width="2.004" stroke-linecap="round" stroke-linejoin="round"/>
<path d="M15.8335 5.40397C16.2937 5.40397 16.6668 5.03088 16.6668 4.57064C16.6668 4.1104 16.2937 3.7373 15.8335 3.7373C15.3733 3.7373 15.0002 4.1104 15.0002 4.57064C15.0002 5.03088 15.3733 5.40397 15.8335 5.40397Z" stroke="#0000FF" stroke-width="2.004" stroke-linecap="round" stroke-linejoin="round"/>
<path d="M15.8335 11.2373C16.2937 11.2373 16.6668 10.8642 16.6668 10.404C16.6668 9.94373 16.2937 9.57064 15.8335 9.57064C15.3733 9.57064 15.0002 9.94373 15.0002 10.404C15.0002 10.8642 15.3733 11.2373 15.8335 11.2373Z" stroke="#0000FF" stroke-width="2.004" stroke-linecap="round" stroke-linejoin="round"/>
<path d="M15.8335 17.0706C16.2937 17.0706 16.6668 16.6975 16.6668 16.2373C16.6668 15.7771 16.2937 15.404 15.8335 15.404C15.3733 15.404 15.0002 15.7771 15.0002 16.2373C15.0002 16.6975 15.3733 17.0706 15.8335 17.0706Z" stroke="#0000FF" stroke-width="2.004" stroke-linecap="round" stroke-linejoin="round"/>
<path d="M4.16683 5.40397C4.62707 5.40397 5.00016 5.03088 5.00016 4.57064C5.00016 4.1104 4.62707 3.7373 4.16683 3.7373C3.70659 3.7373 3.3335 4.1104 3.3335 4.57064C3.3335 5.03088 3.70659 5.40397 4.16683 5.40397Z" stroke="#0000FF" stroke-width="2.004" stroke-linecap="round" stroke-linejoin="round"/>
<path d="M4.16683 11.2373C4.62707 11.2373 5.00016 10.8642 5.00016 10.404C5.00016 9.94373 4.62707 9.57064 4.16683 9.57064C3.70659 9.57064 3.3335 9.94373 3.3335 10.404C3.3335 10.8642 3.70659 11.2373 4.16683 11.2373Z" stroke="#0000FF" stroke-width="2.004" stroke-linecap="round" stroke-linejoin="round"/>
<path d="M4.16683 17.0706C4.62707 17.0706 5.00016 16.6975 5.00016 16.2373C5.00016 15.7771 4.62707 15.404 4.16683 15.404C3.70659 15.404 3.3335 15.7771 3.3335 16.2373C3.3335 16.6975 3.70659 17.0706 4.16683 17.0706Z" stroke="#0000FF" stroke-width="2.004" stroke-linecap="round" stroke-linejoin="round"/>
</svg>
