<svg width="22" height="21" viewBox="0 0 22 21" fill="none" xmlns="http://www.w3.org/2000/svg">
<path d="M12.5004 16.238C12.5004 17.6187 11.3811 18.738 10.0004 18.738C8.61966 18.738 7.50037 17.6187 7.50037 16.238M11.4975 5.60342C11.8604 5.22849 12.0837 4.71764 12.0837 4.15462C12.0837 3.00403 11.151 2.07129 10.0004 2.07129C8.84978 2.07129 7.91704 3.00403 7.91704 4.15462C7.91704 4.71764 8.14037 5.22849 8.50328 5.60342M2.12272 7.34042C2.11076 6.13097 2.76283 5.00155 3.81623 4.40718M17.878 7.34042C17.89 6.13097 17.2379 5.00155 16.1845 4.40718M15.0004 9.73796C15.0004 8.58868 14.4736 7.48648 13.5359 6.67383C12.5982 5.86117 11.3265 5.40462 10.0004 5.40462C8.67429 5.40462 7.40252 5.86117 6.46484 6.67383C5.52715 7.48648 5.00037 8.58868 5.00037 9.73796C5.00037 11.6395 4.52881 13.0301 3.94042 14.0252C3.26982 15.1593 2.93452 15.7264 2.94776 15.8618C2.96291 16.0168 2.9908 16.0657 3.11649 16.1576C3.22635 16.238 3.7783 16.238 4.88219 16.238H15.1185C16.2224 16.238 16.7744 16.238 16.8843 16.1576C17.0099 16.0657 17.0378 16.0168 17.053 15.8618C17.0662 15.7264 16.7309 15.1593 16.0603 14.0252C15.4719 13.0301 15.0004 11.6395 15.0004 9.73796Z" stroke="#717680" stroke-width="1.67" stroke-linecap="round" stroke-linejoin="round"/>
</svg>
