<svg width="22" height="21" viewBox="0 0 22 21" fill="none" xmlns="http://www.w3.org/2000/svg">
<path d="M9.99984 12.9046C7.23841 12.9046 4.99984 10.666 4.99984 7.90462V3.27499C4.99984 2.93012 4.99984 2.75768 5.05009 2.61961C5.13434 2.38813 5.31668 2.20579 5.54815 2.12155C5.68623 2.07129 5.85867 2.07129 6.20354 2.07129H13.7961C14.141 2.07129 14.3134 2.07129 14.4515 2.12155C14.683 2.20579 14.8653 2.38813 14.9496 2.61961C14.9998 2.75768 14.9998 2.93012 14.9998 3.27499V7.90462C14.9998 10.666 12.7613 12.9046 9.99984 12.9046ZM9.99984 12.9046V15.4046M14.9998 3.73796H17.0832C17.4715 3.73796 17.6656 3.73796 17.8187 3.80139C18.0229 3.88597 18.1852 4.0482 18.2697 4.25239C18.3332 4.40553 18.3332 4.59967 18.3332 4.98796V5.40462C18.3332 6.1796 18.3332 6.56709 18.248 6.885C18.0168 7.74773 17.3429 8.4216 16.4802 8.65277C16.1623 8.73796 15.7748 8.73796 14.9998 8.73796M4.99984 3.73796H2.9165C2.52822 3.73796 2.33408 3.73796 2.18093 3.80139C1.97674 3.88597 1.81452 4.0482 1.72994 4.25239C1.6665 4.40553 1.6665 4.59967 1.6665 4.98796V5.40462C1.6665 6.1796 1.6665 6.56709 1.75169 6.885C1.98286 7.74773 2.65673 8.4216 3.51946 8.65277C3.83737 8.73796 4.22486 8.73796 4.99984 8.73796M6.20354 18.738H13.7961C14.0007 18.738 14.1665 18.5721 14.1665 18.3676C14.1665 16.7312 12.8399 15.4046 11.2035 15.4046H8.79613C7.15973 15.4046 5.83317 16.7312 5.83317 18.3676C5.83317 18.5721 5.99899 18.738 6.20354 18.738Z" stroke="#717680" stroke-width="1.67" stroke-linecap="round" stroke-linejoin="round"/>
</svg>
