<svg width="22" height="21" viewBox="0 0 22 21" fill="none" xmlns="http://www.w3.org/2000/svg">
<path d="M9.99984 12.9046C11.3805 12.9046 12.4998 11.7853 12.4998 10.4046C12.4998 9.02391 11.3805 7.90462 9.99984 7.90462C8.61913 7.90462 7.49984 9.02391 7.49984 10.4046C7.49984 11.7853 8.61913 12.9046 9.99984 12.9046Z" stroke="#717680" stroke-width="1.67" stroke-linecap="round" stroke-linejoin="round"/>
<path d="M15.6059 12.6774C15.5051 12.9058 15.475 13.1593 15.5195 13.4051C15.5641 13.6508 15.6812 13.8776 15.8559 14.0561L15.9014 14.1016C16.0422 14.2423 16.154 14.4094 16.2302 14.5934C16.3065 14.7773 16.3457 14.9744 16.3457 15.1736C16.3457 15.3727 16.3065 15.5698 16.2302 15.7538C16.154 15.9377 16.0422 16.1048 15.9014 16.2455C15.7606 16.3864 15.5935 16.4982 15.4096 16.5744C15.2257 16.6507 15.0285 16.6899 14.8294 16.6899C14.6303 16.6899 14.4331 16.6507 14.2492 16.5744C14.0652 16.4982 13.8981 16.3864 13.7574 16.2455L13.712 16.2001C13.5334 16.0254 13.3066 15.9083 13.0609 15.8637C12.8151 15.8192 12.5617 15.8492 12.3332 15.9501C12.1091 16.0461 11.918 16.2056 11.7834 16.4088C11.6488 16.6121 11.5766 16.8502 11.5756 17.094V17.2228C11.5756 17.6246 11.416 18.01 11.1318 18.2942C10.8477 18.5783 10.4623 18.738 10.0604 18.738C9.6586 18.738 9.27322 18.5783 8.98907 18.2942C8.70492 18.01 8.54529 17.6246 8.54529 17.2228V17.1546C8.53943 16.9039 8.45826 16.6607 8.31235 16.4567C8.16643 16.2527 7.96252 16.0973 7.72711 16.0107C7.49861 15.9098 7.24515 15.8798 6.99939 15.9243C6.75364 15.9689 6.52687 16.086 6.34832 16.2607L6.30287 16.3061C6.16215 16.447 5.99505 16.5588 5.81111 16.635C5.62717 16.7113 5.43001 16.7505 5.2309 16.7505C5.03178 16.7505 4.83462 16.7113 4.65069 16.635C4.46675 16.5588 4.29965 16.447 4.15893 16.3061C4.01805 16.1654 3.9063 15.9983 3.83005 15.8144C3.7538 15.6304 3.71455 15.4333 3.71455 15.2342C3.71455 15.0351 3.7538 14.8379 3.83005 14.654C3.9063 14.47 4.01805 14.3029 4.15893 14.1622L4.20438 14.1167C4.37903 13.9382 4.49619 13.7114 4.54075 13.4657C4.58531 13.2199 4.55523 12.9665 4.45438 12.738C4.35835 12.5139 4.19889 12.3228 3.99564 12.1882C3.79239 12.0536 3.55422 11.9814 3.31044 11.9804H3.18166C2.77981 11.9804 2.39443 11.8207 2.11028 11.5366C1.82614 11.2525 1.6665 10.8671 1.6665 10.4652C1.6665 10.0634 1.82614 9.678 2.11028 9.39386C2.39443 9.10971 2.77981 8.95008 3.18166 8.95008H3.24984C3.50059 8.94421 3.74378 8.86305 3.94779 8.71713C4.1518 8.57122 4.3072 8.3673 4.39378 8.1319C4.49462 7.9034 4.5247 7.64993 4.48014 7.40418C4.43558 7.15842 4.31843 6.93165 4.14378 6.75311L4.09832 6.70765C3.95745 6.56694 3.84569 6.39983 3.76944 6.2159C3.69319 6.03196 3.65395 5.8348 3.65395 5.63568C3.65395 5.43657 3.69319 5.23941 3.76944 5.05547C3.84569 4.87153 3.95745 4.70443 4.09832 4.56371C4.23904 4.42284 4.40614 4.31108 4.59008 4.23484C4.77402 4.15859 4.97118 4.11934 5.17029 4.11934C5.36941 4.11934 5.56657 4.15859 5.7505 4.23484C5.93444 4.31108 6.10154 4.42284 6.24226 4.56371L6.28772 4.60917C6.46626 4.78382 6.69303 4.90098 6.93879 4.94554C7.18454 4.99009 7.43801 4.96001 7.6665 4.85917H7.72711C7.95118 4.76314 8.14228 4.60368 8.27688 4.40043C8.41148 4.19718 8.48371 3.95901 8.48469 3.71523V3.58644C8.48469 3.1846 8.64432 2.79921 8.92846 2.51507C9.21261 2.23092 9.59799 2.07129 9.99984 2.07129C10.4017 2.07129 10.7871 2.23092 11.0712 2.51507C11.3554 2.79921 11.515 3.1846 11.515 3.58644V3.65462C11.516 3.8984 11.5882 4.13657 11.7228 4.33982C11.8574 4.54307 12.0485 4.70253 12.2726 4.79856C12.5011 4.89941 12.7545 4.92949 13.0003 4.88493C13.246 4.84037 13.4728 4.72321 13.6514 4.54856L13.6968 4.50311C13.8375 4.36223 14.0046 4.25048 14.1886 4.17423C14.3725 4.09798 14.5697 4.05873 14.7688 4.05873C14.9679 4.05873 15.1651 4.09798 15.349 4.17423C15.5329 4.25048 15.7 4.36223 15.8407 4.50311C15.9816 4.64382 16.0934 4.81093 16.1696 4.99486C16.2459 5.1788 16.2851 5.37596 16.2851 5.57508C16.2851 5.77419 16.2459 5.97135 16.1696 6.15529C16.0934 6.33923 15.9816 6.50633 15.8407 6.64705L15.7953 6.6925C15.6206 6.87105 15.5035 7.09782 15.4589 7.34357C15.4144 7.58932 15.4444 7.84279 15.5453 8.07129V8.1319C15.6413 8.35596 15.8008 8.54706 16.004 8.68166C16.2073 8.81627 16.4455 8.8885 16.6892 8.88947H16.818C17.2199 8.88947 17.6052 9.0491 17.8894 9.33325C18.1735 9.6174 18.3332 10.0028 18.3332 10.4046C18.3332 10.8065 18.1735 11.1919 17.8894 11.476C17.6052 11.7601 17.2199 11.9198 16.818 11.9198H16.7498C16.5061 11.9207 16.2679 11.993 16.0646 12.1276C15.8614 12.2622 15.7019 12.4533 15.6059 12.6774Z" stroke="#717680" stroke-width="1.67" stroke-linecap="round" stroke-linejoin="round"/>
</svg>
