<svg width="22" height="21" viewBox="0 0 22 21" fill="none" xmlns="http://www.w3.org/2000/svg">
<path d="M5.07847 9.76195C5.02668 9.42815 4.99981 9.08617 4.99981 8.73796C4.99981 5.05606 8.00421 2.07129 11.7103 2.07129C15.4165 2.07129 18.4209 5.05606 18.4209 8.73796C18.4209 9.56968 18.2675 10.3658 17.9875 11.1C17.9293 11.2525 17.9002 11.3288 17.887 11.3883C17.8739 11.4473 17.8689 11.4888 17.8674 11.5492C17.866 11.6101 17.8743 11.6773 17.8908 11.8116L18.2263 14.5367C18.2626 14.8317 18.2808 14.9792 18.2317 15.0865C18.1887 15.1804 18.1123 15.2551 18.0174 15.2959C17.9091 15.3425 17.762 15.3209 17.4679 15.2778L14.8135 14.8887C14.675 14.8684 14.6056 14.8582 14.5425 14.8586C14.4801 14.859 14.4369 14.8636 14.3758 14.8764C14.314 14.8894 14.2351 14.919 14.0773 14.9781C13.3412 15.2538 12.5435 15.4046 11.7103 15.4046C11.3618 15.4046 11.0196 15.3782 10.6854 15.3274M6.35949 18.738C8.83023 18.738 10.8332 16.6859 10.8332 14.1546C10.8332 11.6233 8.83023 9.57129 6.35949 9.57129C3.88874 9.57129 1.8858 11.6233 1.8858 14.1546C1.8858 14.6634 1.96673 15.1529 2.11613 15.6102C2.17928 15.8035 2.21085 15.9002 2.22122 15.9662C2.23204 16.0352 2.23393 16.0739 2.2299 16.1436C2.22604 16.2103 2.20935 16.2857 2.17596 16.4365L1.6665 18.738L4.16217 18.3971C4.29839 18.3785 4.3665 18.3692 4.42598 18.3696C4.4886 18.37 4.52184 18.3734 4.58326 18.3857C4.64159 18.3973 4.7283 18.4279 4.90173 18.4891C5.35866 18.6504 5.84909 18.738 6.35949 18.738Z" stroke="#717680" stroke-width="1.67" stroke-linecap="round" stroke-linejoin="round"/>
</svg>
